<?xml version="1.0" encoding="UTF-8" standalone="no"?>
<!-- Created with Inkscape (http://www.inkscape.org/) -->

<svg
   xmlns:dc="http://purl.org/dc/elements/1.1/"
   xmlns:cc="http://creativecommons.org/ns#"
   xmlns:rdf="http://www.w3.org/1999/02/22-rdf-syntax-ns#"
   xmlns:svg="http://www.w3.org/2000/svg"
   xmlns="http://www.w3.org/2000/svg"
   xmlns:xlink="http://www.w3.org/1999/xlink"
   xmlns:sodipodi="http://sodipodi.sourceforge.net/DTD/sodipodi-0.dtd"
   xmlns:inkscape="http://www.inkscape.org/namespaces/inkscape"
   id="svg2"
   version="1.1"
   inkscape:version="0.48.4 r9939"
   width="363"
   height="216"
   sodipodi:docname="logo-col-prof.svg">
  <metadata
     id="metadata8">
    <rdf:RDF>
      <cc:Work
         rdf:about="">
        <dc:format>image/svg+xml</dc:format>
        <dc:type
           rdf:resource="http://purl.org/dc/dcmitype/StillImage" />
        <dc:title></dc:title>
      </cc:Work>
    </rdf:RDF>
  </metadata>
  <defs
     id="defs6">
    <clipPath
       clipPathUnits="userSpaceOnUse"
       id="clipPath2991">
      <rect
         style="fill:#000000;fill-opacity:1;stroke:#000000;stroke-width:10.72229481;stroke-linejoin:round;stroke-miterlimit:4;stroke-opacity:1;stroke-dasharray:none"
         id="rect2993"
         width="164.49257"
         height="186.65245"
         x="19.056042"
         y="7.1257954"
         ry="0"
         rx="0" />
    </clipPath>
    <clipPath
       clipPathUnits="userSpaceOnUse"
       id="clipPath3815">
      <rect
         style="fill:#fbfff7;fill-opacity:1;stroke:#fb0404;stroke-width:2.9000001;stroke-linejoin:round;stroke-miterlimit:4;stroke-opacity:1;stroke-dasharray:none"
         id="rect3817"
         width="277.5723"
         height="413.37381"
         x="-505.89789"
         y="442.83328" />
    </clipPath>
  </defs>
  <sodipodi:namedview
     pagecolor="#ffffff"
     bordercolor="#666666"
     borderopacity="1"
     objecttolerance="10"
     gridtolerance="10"
     guidetolerance="10"
     inkscape:pageopacity="0"
     inkscape:pageshadow="2"
     inkscape:window-width="1366"
     inkscape:window-height="705"
     id="namedview4"
     showgrid="false"
     inkscape:zoom="0.38521485"
     inkscape:cx="-1017.0536"
     inkscape:cy="-341.53381"
     inkscape:window-x="-8"
     inkscape:window-y="-8"
     inkscape:window-maximized="1"
     inkscape:current-layer="svg2" />
  <path
     sodipodi:type="arc"
     style="opacity:0.93469387999999998;fill:none;fill-opacity:1;stroke:none"
     id="path3845"
     sodipodi:cx="-449.10004"
     sodipodi:cy="935.07922"
     sodipodi:rx="594.47345"
     sodipodi:ry="589.28156"
     d="m 145.37341,935.07922 a 594.47345,589.28156 0 1 1 -1188.94691,0 594.47345,589.28156 0 1 1 1188.94691,0 z"
     transform="matrix(0.8930131,0,0,0.93171806,-111.64869,-51.670929)" />
  <g
     id="g3788"
     transform="translate(669.6312,663.5698)">
    <path
       style="fill:#fbfcfc"
       d="m -182.77617,98.8692 0,-461.5 359,0 359,0 0,461.5 0,461.5 -359,0 -359,0 0,-461.5 z"
       id="path3804"
       inkscape:connector-curvature="0" />
    <path
       style="fill:#cfcfd1"
       d="m -119.77617,530.40833 c -11.95215,-1.053 -19.41162,-6.17787 -23.0166,-15.81304 -2.00381,-5.35567 -2.01166,-6.99856 -1.99021,-416.55148 0.0195,-372.7131 0.17017,-411.68908 1.61057,-416.67461 0.87397,-3.025 1.9008,-7.527 2.28186,-10.00444 0.93015,-6.04748 1.41263,-6.62773 6.13949,-7.38358 2.23819,-0.35791 89.96984,-0.66554 194.95923,-0.68363 l 190.88979,-0.0329 4.15831,2.62503 c 2.28708,1.44376 6.7029,5.13696 9.81294,8.20711 9.85111,9.72475 7.95242,9.26301 38.15462,9.27866 49.05224,0.0254 71.39305,4.47713 109,21.71981 28.65356,13.13757 60.72456,39.90264 81.2095,67.77394 18.83843,25.63109 33.52776,58.84911 38.25115,86.5 0.89254,5.225 2.05403,11.41896 2.58108,13.76435 1.24208,5.5273 1.24723,50.912377 0.006,56.471297 -0.52352,2.34539 -1.70098,8.76435 -2.61658,14.26435 -3.79734,22.81066 -17.28315,55.67838 -31.59352,77 -10.21064,15.21327 -17.65506,24.09162 -31.47723,37.54036 -31.28646,30.4412 -69.08427,49.983503 -112.86081,58.351553 -11.53098,2.20419 -17.72393,2.64857 -49,3.51603 -30.46522,0.84498 -32.43205,1.20932 -35.28776,6.53675 -1.49893,2.79631 -1.65083,19.11951 -1.79189,192.55531 -0.16851,207.1969 0.1949,194.57138 -5.82774,202.46748 -1.4168,1.85751 -5.16723,4.64972 -8.3343,6.20491 l -5.7579,2.82761 -181,0.1 c -99.55,0.055 -184.375,-0.1974 -188.5,-0.56082 z m 59.34873,-31.91157 c 2.72077,-2.26135 1.90582,-5.19298 -2.50761,-9.02065 -16.16655,-14.02092 -24.434695,-22.23861 -31.84112,-31.64682 -10.88511,-13.82711 -12.46731,-15.46009 -14.9793,-15.46009 -3.74518,0 -4.41921,4.06984 -4.47159,27 -0.027,11.825 0.30047,22.75146 0.72773,24.28102 0.42726,1.52956 2.22726,3.68263 4,4.78459 3.01186,1.87223 4.67185,1.98491 25.321886,1.71898 16.929234,-0.21802 22.485004,-0.60564 23.750004,-1.65703 z m 294.82481,-90.25113 c 1.66752,-1.18738 3.20346,-3.56279 3.84556,-5.94736 0.72906,-2.70752 0.97556,-29.662 0.775,-84.74458 -0.27618,-75.85123 -0.40395,-80.94181 -2.0964,-83.52399 -0.99126,-1.51237 -3.01626,-3.28965 -4.5,-3.94951 -2.03192,-0.90365 -24.66247,-1.20112 -91.6977,-1.20536 -102.62555,-0.006 -97.32459,-0.39613 -119,8.74685 -23.58471,9.94835 -42.15776,32.30606 -47.91058,57.6734 -2.60327,11.47922 -2.87813,18.86693 -1.18245,31.78185 1.93903,14.76834 6.14589,28.02841 12.29075,38.74056 4.74424,8.27051 13.08655,19.00347 16.70624,21.49375 1.15282,0.79312 2.32138,1.7632 2.5968,2.15574 0.95822,1.36569 11.29689,8.13426 16.14139,10.56751 6.24481,3.13659 14.70596,5.90552 24.55611,8.03603 6.83874,1.47917 16.87419,1.72616 81.30174,2.00093 40.425,0.1724 76.425,0.42242 80,0.5556 14.91577,0.55566 25.27897,-0.32031 28.17354,-2.38142 z M -106.67362,196.50681 c 0.3314,-0.35069 4.23932,-5.58761 8.684267,-11.63761 27.859993,-37.92016 72.111373,-65.01744 118.713183,-72.69387 l 14,-2.30613 97.62789,0.33883 c 88.86427,0.30841 97.912,0.1919 100.79296,-1.2979 1.74079,-0.9002 3.59574,-2.76946 4.12211,-4.15393 0.59783,-1.57241 0.95704,-77.76527 0.95704,-203.00176 0,-218.09414 0.35813,-204.53414 -5.47206,-207.19056 -1.99965,-0.9111 -42.50101,-1.19468 -170.62465,-1.19468 -186.28787,0 -172.53794,-0.512 -175.48207,6.5343 -1.21523,2.90845 -1.41768,38.44531 -1.39677,245.18358 0.0228,225.71984 0.22064,245.69043 2.49729,252.10107 0.45261,1.27446 4.16031,0.8218 5.58081,-0.68134 z"
       id="path3802"
       inkscape:connector-curvature="0" />
    <path
       style="fill:#a1a2a5"
       d="m -9.27617,520.9037 c -14.80082,-2.061 -26.0373,-5.69194 -25.10809,-8.11341 0.34862,-0.90849 -2.23373,-1.41628 -9.70848,-1.90906 -13.5011,-0.89008 -69.29234,-0.23999 -70.35008,0.81973 -0.45661,0.45747 -0.0591,1.39563 0.88342,2.0848 2.58304,1.88876 0.23432,3.58344 -4.96643,3.58344 -4.70368,0 -9.67411,-2.05598 -10.56159,-4.36872 -0.30449,-0.79348 -2.04652,-1.74372 -3.87118,-2.11164 -1.82466,-0.36792 -4.10507,-0.89068 -5.06757,-1.16168 -1.66311,-0.46827 -1.74945,-21.23138 -1.73899,-418.17535 0.006,-229.72543 0.29098,-419.37658 0.63317,-421.44698 0.48782,-2.9515 1.18725,-3.92323 3.23899,-4.5 1.43926,-0.4046 88.9678,-0.73563 194.50788,-0.73563 169.54279,0 191.98548,0.17469 192.70186,1.5 0.44595,0.825 1.0901,4.08949 1.43146,7.25441 0.55055,5.10448 1.027,6.06452 4.21846,8.5 l 3.59782,2.74559 37.57968,0.59882 c 43.16098,0.68775 50.69755,1.53102 73.57967,8.23289 37.38414,10.94932 75.50172,35.50234 99.05126,63.80277 11.69859,14.05867 13.91032,16.98326 21.10723,27.91023 16.37932,24.86852 27.13648,51.70648 32.53018,81.15929 1.91563,10.46048 2.25093,15.72938 2.24615,35.296 -0.005,19.68537 -0.33195,24.72669 -2.27005,34.9814 -8.00242,42.34173 -25.19261,77.03598 -53.13452,107.23918 -25.30964,27.3579 -54.59836,45.8039 -91.928,57.89612 -20.57734,6.66564 -35.10532,8.40897 -84.60225,10.15214 -19.59796,0.6902 -21.33382,0.9062 -26,3.23537 -3.01558,1.50525 -5.52172,3.59548 -6.31454,5.26661 -1.01423,2.13779 -1.36486,12.98966 -1.53475,47.5 -0.19337,39.27739 -0.44126,45.64331 -2.03378,52.22918 -0.99747,4.125 -2.66933,8.98822 -3.71525,10.80716 -1.82896,3.1807 -1.90168,6.63163 -1.90168,90.25 0,52.80835 0.3644,86.94284 0.92815,86.94284 1.87572,0 5.02547,11.16497 6.11739,21.68446 1.57624,15.18534 0.7838,75.451 -1.06016,80.62539 -1.87556,5.26309 -6.76973,9.26371 -12.95576,10.59038 -7.73847,1.6596 -243.40723,1.3223 -255.52962,-0.36573 z m -29.76112,-19.83665 c 2.2307,-1.44432 -1.52857,-5.43425 -14.15003,-15.01826 -15.91308,-12.08349 -32.183012,-28.53287 -41.58885,-42.04754 -13.18672,-18.9472 -15.85084,-22.26682 -20.2199,-25.19496 -3.26389,-2.18745 -5.33432,-2.83368 -8.72031,-2.7218 -3.11451,0.1029 -4.82178,-0.35519 -5.7182,-1.53429 -1.04378,-1.37294 -1.28381,6.10852 -1.30979,40.82489 l -0.0318,42.50589 2.75,1.21677 c 1.5125,0.66923 5.225,1.63889 8.25,2.15481 6.60145,1.12587 78.97031,0.9596 80.73888,-0.18551 z M 231.43173,426.1192 c 0.87458,-0.6875 1.86765,-2.18921 2.20682,-3.33712 l 0.61666,-2.08713 -85.26569,-0.63829 c -82.00617,-0.61388 -95.03869,-0.35508 -99.13947,1.96875 -1.6994,0.96302 -1.5598,1.18869 1.5,2.4249 2.71957,1.09875 20.24396,1.47137 90.37378,1.92161 47.85,0.3072 87.25149,0.65726 87.55887,0.77791 0.30738,0.12065 1.27444,-0.34313 2.14903,-1.03063 z m 11.89019,-14.44809 c 1.20849,-1.20849 1.28941,-180.20623 0.0835,-184.71528 -0.58747,-2.19661 -1.90498,-3.32767 -5.72239,-4.91255 -4.87902,-2.02564 -6.4306,-2.05986 -95.95921,-2.11651 -90.02367,-0.057 -91.10192,-0.0342 -100.5,2.12151 -19.66202,4.51 -36.52547,13.24854 -49.88231,25.84871 -12.14887,11.46063 -22.12473,28.99692 -26.22215,46.09522 -1.86623,7.78767 -2.05876,10.77904 -1.56897,24.37699 0.33293,9.24286 1.20282,17.92212 2.15487,21.5 10.6891,40.17049 31.43851,60.39018 72.0314,70.19246 6.14489,1.48386 17.05268,1.76561 90.48716,2.33734 97.7562,0.76109 113.71,0.6602 115.09809,-0.72789 z m -363.1873,-155.61763 c 2.31682,-4.78591 2.84768,-11.10377 0.87782,-10.44715 -1.11643,0.37214 -4.74377,10.63719 -4.77503,13.51287 -0.0282,2.59684 1.88432,1.09235 3.89721,-3.06572 z m -5.06802,-31.55396 c 3.13335,1.1913 3.6131,0.63336 12.15021,-14.13032 30.21135,-52.24613 78.99918,-87.33778 133.50702,-96.02768 12.56588,-2.00331 16.45731,-2.07018 116.53169,-2.00254 82.19955,0.0555 103.88949,-0.19168 105.26819,-1.19991 1.64068,-1.1998 1.7217,-12.97658 1.46831,-213.43625 l -0.26819,-212.16637 -2.41588,-3.2675 -2.41589,-3.26751 2.16589,-1.43809 c 1.19123,-0.79095 2.16588,-2.28321 2.16588,-3.31612 0,-1.83068 -4.71374,-1.87803 -186.94098,-1.87803 -102.81754,0 -187.11639,0.3375 -187.33078,0.75 -0.21439,0.4125 -0.20152,2.81346 0.0286,5.33547 l 0.41839,4.58547 2.83546,-2.83547 c 2.90732,-2.90732 7.92255,-3.79714 10.87225,-1.92899 1.53699,0.97343 0.85019,2.2863 -3.72445,7.11961 -1.28783,1.36065 -3.34391,4.04891 -4.56907,5.97391 -1.354,2.12745 -2.88674,3.38477 -3.90848,3.20616 -1.5711,-0.27463 -1.68093,17.10314 -1.68093,265.96429 0,246.59894 0.12089,266.13723 1.63732,264.6208 1.26782,-1.26782 2.2169,-1.41697 4.20545,-0.66093 z m 20.40831,-2.88032 c 0.66452,-1.5125 1.4875,-2.975 1.82886,-3.25 0.34136,-0.275 1.17011,-1.54289 1.84168,-2.81753 4.037952,-7.66409 19.71686,-27.56904 29.82326,-37.86172 23.95387,-24.39541 54.11684,-41.25393 85.35551,-47.70646 22.79762,-4.70898 27.68023,-4.87027 125.63882,-4.15054 l 92.23922,0.6777 1.17322,-2.57495 c 0.64528,-1.41622 0.8736,-2.87458 0.50739,-3.2408 -0.99005,-0.99005 -2.25997,-1.0041 -107.65904,-1.19171 -108.98791,-0.194 -110.68668,-0.11016 -131.88995,6.50891 -39.13375,12.21645 -72.78109,39.51859 -94.61187,76.77 -2.45613,4.19106 -7.41706,17.69336 -7.47214,20.3371 -0.047,2.25578 1.99151,1.30766 3.22504,-1.5 z m 367.29892,-521.17908 c 0.52371,-0.51218 14.18753,-1.09315 30.45,-1.2947 16.225,-0.20108 30.25909,-0.72023 31.18686,-1.15367 0.92777,-0.43344 1.45793,-1.38463 1.17814,-2.11375 -1.2435,-3.24051 -5.89212,-3.68754 -35.03377,-3.369 -15.85718,0.17333 -30.96873,-0.0707 -33.58123,-0.54238 -4.60268,-0.83093 -4.75,-0.78188 -4.75,1.5814 0,5.07548 7.43862,9.93498 10.55,6.8921 z"
       id="path3800"
       inkscape:connector-curvature="0" />
    <path
       style="fill:#0494d7"
       d="m 15.22383,512.74692 c -2.475,-0.21071 -9,-0.91125 -14.5,-1.55676 -6.06791,-0.71216 -35.36199,-1.39921 -74.5,-1.7473 l -64.5,-0.57366 -0.25119,-416.16906 c -0.13815,-228.89298 0.1039,-417.87813 0.5379,-419.967 0.70991,-3.41681 1.23687,-3.92892 5.2512,-5.10313 3.60159,-1.05349 41.006506,-1.30288 193.96209,-1.29322 l 189.5,0.012 0.29066,6.85403 c 0.22122,5.21671 -0.0774,7.15947 -1.25,8.13266 -1.93707,1.60763 -1.92558,2.73465 0.11746,11.51624 1.52935,6.57362 1.90524,7.20445 4.84021,8.12308 2.09576,0.65596 13.73433,0.67805 34.09188,0.0647 29.43289,-0.88677 40.645,-0.54304 65.77221,2.01635 5.6527,0.57577 5.8381,0.52051 5.18261,-1.54476 -0.59988,-1.89005 -0.28976,-2.14763 2.63758,-2.19076 7.08127,-0.10433 -9.35533,-4.94477 -25.56574,-7.5289 -15.57289,-2.48249 -17.11255,-2.54715 -45.61687,-1.91569 -25.77215,0.57092 -29.75274,0.45786 -31.5,-0.89471 -2,-1.54821 -2,-1.54821 0,-1.59059 1.1,-0.0233 17.525,-0.0908 36.5,-0.15003 41.29299,-0.12884 51.86865,0.94677 74.90702,7.61848 84.30576,24.41421 142.68706,99.16665 148.17363,189.72409 0.94741,15.63731 0.84745,17.90283 -1.55207,35.17585 -5.15667,37.12037 -15.6127,65.69644 -34.41211,94.04746 -9.95653,15.01525 -31.48584,37.93003 -44.11647,46.95547 -10.75942,7.68834 -20.72268,14.01897 -29.07783,18.476 -14.25143,7.60237 -39.77801,16.283 -55.92217,19.01701 -15.91178,2.69466 -21.06221,3.0935 -47,3.63957 -15.125,0.31843 -30.49506,1.03904 -34.1557,1.60136 -5.49329,0.84384 -7.17778,0.75242 -9.64503,-0.52344 -1.64413,-0.85021 -4.75142,-1.82761 -6.90508,-2.172 l -3.91576,-0.62615 -0.24806,62.34755 c -0.56353,141.6362 -0.45835,254.91345 0.27468,295.84755 0.44386,24.78573 0.39874,45.21479 -0.10486,47.4859 -1.48932,6.71636 2.36058,6.49883 -122.30019,6.91025 -60.775,0.20058 -112.525,0.19228 -115,-0.0184 z m -45.29085,-10.43626 c 12.36973,-1.68068 12.67228,-1.77694 11.19191,-3.56067 -0.70149,-0.84524 -3.5537,-2.68853 -6.33825,-4.0962 -5.25911,-2.65863 -22.64833,-12.96469 -28.31385,-16.78075 -8.86014,-5.96784 -25.38821,-21.27326 -34.560426,-32.00384 -17.620594,-20.61436 -35.863604,-52.49613 -40.533344,-70.83674 -1.09743,-4.31021 -2.18339,-8.02479 -2.41323,-8.25463 -1.36043,-1.36043 -2.30569,132.15644 -0.95072,134.28784 1.04006,1.63602 7.48524,1.88835 53.91791,2.11085 23.88513,0.11446 43.37207,-0.23707 48,-0.86586 z m 265.14067,-78.77207 c 1.34855,-2.44459 2.01033,-4.70484 1.51957,-5.18991 -0.47816,-0.47261 -44.29439,-1.11686 -97.36939,-1.43165 -53.65284,-0.31823 -99.38608,-1.002 -103,-1.53999 -3.575,-0.53219 -7.625,-0.95307 -9,-0.93528 l -2.5,0.0323 2.25,1.56952 c 1.2375,0.86324 2.25,2.34629 2.25,3.29568 0,2.00161 4.88712,4.30803 13,6.1352 9.58843,2.15949 27.48577,2.56269 109.98042,2.47765 l 80.48043,-0.0829 2.38897,-4.33061 z m 4.16221,-9.26539 c 3.80246,-0.81548 5.28853,-1.64731 5.80618,-3.25 0.91859,-2.84408 -0.30557,-193.38315 -1.26429,-196.78468 -0.71715,-2.54443 -1.00524,-2.63548 -8.78669,-2.7769 -4.42489,-0.0804 -8.32019,-0.31246 -8.65624,-0.51566 -0.33604,-0.2032 -38.41099,-0.51822 -84.61099,-0.70004 -64.51656,-0.25391 -86.08751,-0.0328 -93,0.95309 -31.45091,4.48588 -57.62779,19.36849 -75.05218,42.67019 -7.86892,10.52312 -14.91924,25.44196 -17.44909,36.92314 -1.58355,7.18658 -1.33337,26.83039 0.46051,36.15912 4.37358,22.74404 14.35102,42.37298 28.96827,56.99023 14.09599,14.09599 30.1844,22.58743 52.25307,27.5791 9.63345,2.17897 11.53338,2.23227 100.31942,2.8143 49.775,0.3263 91.71535,0.69246 93.20078,0.81369 1.48543,0.12123 5.00049,-0.27278 7.81125,-0.87558 z m -363.38612,-146.154 c 4.22896,-4.81894 7.3446,-10.53923 9.39544,-17.25 2.18116,-7.13717 14.955259,-33.66308 19.80149,-41.11856 8.880741,-13.6622 13.70139,-19.77559 24.6465,-31.25588 22.85257,-23.96998 54.92624,-41.45223 88.75245,-48.3759 9.97539,-2.04179 13.20971,-2.11286 109.77821,-2.41195 54.725,-0.16949 100.50685,-0.31482 101.73746,-0.32294 1.52997,-0.0101 3.0706,-1.33457 4.87235,-4.18872 2.4631,-3.9018 2.52152,-4.25685 0.89606,-5.44542 -1.37738,-1.00716 -22.42636,-1.28818 -101.25729,-1.35187 -92.59545,-0.0748 -118.3578,-0.77333 -92.1802,-2.49935 5.73739,-0.37829 51.15662,-0.31467 100.93162,0.14139 82.97695,0.76027 98.85485,0.50894 101.24497,-1.6026 0.5209,-0.46019 1.19264,-378.58037 0.77779,-437.8182 l -0.0228,-3.25 -188.95928,0 -188.95929,0 -0.0434,275.25 c -0.0239,151.3875 -0.32949,280.44524 -0.67917,286.79497 -0.65904,11.96709 0.18729,24.95503 1.62613,24.95503 0.45421,0 2.22952,-3.87928 3.94514,-8.62062 9.06787,-25.06027 17.14242,-41.54931 25.64775,-52.37523 6.580531,-8.37597 7.182278,-8.16605 1.42141,0.49585 -5.43706,8.17504 -19.87745,40.0991 -22.84295,50.5 -2.98212,10.4592 -4.69143,22 -3.25843,22 0.41439,0 1.64197,-1.0125 2.72797,-2.25 z m 28.37409,-79.25 c 0.684689,-0.825 1.469889,-1.5 1.744889,-1.5 0.275,0 -0.0602,0.675 -0.744889,1.5 -0.684689,0.825 -1.469889,1.5 -1.744889,1.5 -0.275,0 0.0602,-0.675 0.744889,-1.5 z m 465.5,-488.5 c -2.75248,-1.18278 -3.731,-1.18278 -3,0 0.33992,0.55 1.60398,0.96837 2.80902,0.92971 2.11236,-0.0678 2.11922,-0.10112 0.19098,-0.92971 z"
       id="path3798"
       inkscape:connector-curvature="0" />
    <path
       style="fill:#626264"
       d="m 15.22383,512.74692 c -2.475,-0.21071 -9,-0.91125 -14.5,-1.55676 -6.06791,-0.71216 -35.36199,-1.39921 -74.5,-1.7473 l -64.5,-0.57366 -0.25119,-416.16906 c -0.13815,-228.89298 0.1039,-417.87813 0.5379,-419.967 0.70991,-3.41681 1.23687,-3.92892 5.2512,-5.10313 3.60159,-1.05349 41.006506,-1.30288 193.96209,-1.29322 l 189.5,0.012 0.29066,6.85403 c 0.22122,5.21671 -0.0774,7.15947 -1.25,8.13266 -1.99797,1.65817 -1.94469,3.17697 0.44399,12.65711 1.94486,7.71875 1.98495,11.70886 2,199.06761 0.009,107.987303 0.3957,191.426063 0.88935,191.731153 0.4807,0.29708 3.5182,-0.51865 6.75,-1.81276 5.60382,-2.24392 7.33509,-2.37933 37.376,-2.92332 33.35411,-0.60398 45.92575,-1.98239 63,-6.90761 11.30464,-3.26093 31.7948,-11.44342 38,-15.17483 3.025,-1.81904 6.89008,-3.97839 8.58908,-4.79855 7.0844,-3.4199 27.72993,-20.00428 38.91092,-31.25682 17.17669,-17.28661 29.35173,-35.48724 40.16837,-60.04824 18.03324,-40.94749 19.41392,-91.713623 3.78036,-139.000003 -4.88419,-14.77308 -7.99374,-22.72294 -10.36536,-26.5 -0.51802,-0.825 -1.82393,-3.525 -2.90203,-6 -5.82536,-13.37331 -7.37559,-16.44214 -9.7031,-19.20823 -1.40375,-1.66827 -3.14127,-4.44287 -3.86115,-6.16578 -2.20219,-5.27057 -24.13474,-28.57247 -31.64995,-33.62599 -2.04479,-1.375 -7.58257,-5.10516 -12.30618,-8.28924 -20.55095,-13.85296 -54.93248,-26.89782 -82.66096,-31.36279 -14.88822,-2.39738 -16.66435,-2.47008 -45,-1.84191 -25.77262,0.57135 -29.7527,0.45836 -31.5,-0.89424 -2,-1.54821 -2,-1.54821 0,-1.59059 1.1,-0.0233 17.525,-0.0908 36.5,-0.15003 41.29299,-0.12884 51.86865,0.94677 74.90702,7.61848 84.30576,24.41421 142.68706,99.16665 148.17363,189.72409 0.94741,15.63731 0.84745,17.90283 -1.55207,35.17585 -5.15667,37.12037 -15.6127,65.69644 -34.41211,94.04746 -9.95653,15.01525 -31.48584,37.93003 -44.11647,46.95547 -10.75942,7.68834 -20.72268,14.01897 -29.07783,18.476 -14.25143,7.60237 -39.77801,16.283 -55.92217,19.01701 -15.91178,2.69466 -21.06221,3.0935 -47,3.63957 -15.125,0.31843 -30.49506,1.03904 -34.1557,1.60136 -5.49329,0.84384 -7.17778,0.75242 -9.64503,-0.52344 -1.64413,-0.85021 -4.75142,-1.82761 -6.90508,-2.172 l -3.91576,-0.62615 -0.24806,62.34755 c -0.56353,141.6362 -0.45835,254.91345 0.27468,295.84755 0.44386,24.78573 0.39874,45.21479 -0.10486,47.4859 -1.48932,6.71636 2.36058,6.49883 -122.30019,6.91025 -60.775,0.20058 -112.525,0.19228 -115,-0.0184 z m -45.29085,-10.43626 c 12.36973,-1.68068 12.67228,-1.77694 11.19191,-3.56067 -0.70149,-0.84524 -3.5537,-2.68853 -6.33825,-4.0962 -5.25911,-2.65863 -22.64833,-12.96469 -28.31385,-16.78075 -8.86014,-5.96784 -25.38821,-21.27326 -34.560426,-32.00384 -17.620594,-20.61436 -35.863604,-52.49613 -40.533344,-70.83674 -1.09743,-4.31021 -2.18339,-8.02479 -2.41323,-8.25463 -1.36043,-1.36043 -2.30569,132.15644 -0.95072,134.28784 1.04006,1.63602 7.48524,1.88835 53.91791,2.11085 23.88513,0.11446 43.37207,-0.23707 48,-0.86586 z m 263.04085,-12.25781 c 0.95244,-0.61085 1.25,-7.64811 1.25,-29.56267 l 0,-28.76098 3.5,-4.08897 c 4.34122,-5.07173 4.38991,-6.76373 0.25,-8.68717 -2.80113,-1.30143 -16.42419,-1.58151 -98.63696,-2.0279 -98.27136,-0.53359 -106.90488,-0.87815 -119.11304,-4.75378 -7.01512,-2.22704 -22.18269,-9.46831 -27.38737,-13.07523 -22.79358,-15.79628 -41.83685,-35.13983 -45.12215,-45.83366 -0.40439,-1.31631 -1.09179,-2.84329 -1.52755,-3.39329 -1.7099,-2.15816 -6.16647,-15.4112 -7.73416,-23 -1.16084,-5.61937 -1.66018,-13.20763 -1.678,-25.5 -0.0232,-16.03782 0.20831,-18.37731 2.77131,-28 3.32466,-12.48228 11.63917,-30.00861 18.59535,-39.19752 19.01808,-25.1223 44.31936,-38.94776 82.25382,-44.94624 5.25713,-0.83129 33.50629,-1.08867 99.93674,-0.9105 l 92.60799,0.24837 0.62835,-2.34705 c 0.3456,-1.29088 0.63451,-14.29081 0.64202,-28.88872 l 0.0136,-26.54166 3.5,-3.71066 c 1.925,-2.04086 3.5,-4.33918 3.5,-5.10737 0,-0.76819 -1.76603,-2.31722 -3.92452,-3.44229 -3.87349,-2.01898 -5.21441,-2.04663 -103.13589,-2.12733 -92.32523,-0.0761 -118.02348,-0.77527 -91.87121,-2.49962 5.73739,-0.37829 51.15662,-0.31467 100.93162,0.14139 82.97695,0.76027 98.85485,0.50894 101.24497,-1.6026 0.5209,-0.46019 1.19264,-378.58037 0.77779,-437.8182 l -0.0228,-3.25 -188.95928,0 -188.95929,0 -0.0434,275.25 c -0.0239,151.3875 -0.32949,280.44524 -0.67917,286.79497 -0.65904,11.96709 0.18729,24.95503 1.62613,24.95503 0.45421,0 2.22952,-3.87928 3.94514,-8.62062 9.06787,-25.06027 17.14242,-41.54931 25.64775,-52.37523 6.580531,-8.37597 7.182278,-8.16605 1.42141,0.49585 -1.46318,2.2 -6.52782,12.1 -11.25476,22 -9.71629,20.34957 -14.4121,34.93144 -15.13547,47 -0.26373,4.4 -1.24367,12.48123 -2.17764,17.95829 -2.82251,16.55194 -0.63598,58.62103 3.51046,67.54171 0.63912,1.375 1.80545,3.66917 2.59186,5.09816 0.7864,1.42899 2.15601,5.47899 3.04358,9 1.86477,7.39761 9.65328,24.12225 14.62354,31.40184 17.111547,25.06207 31.06979,40.87272 47.67644,54.00364 17.13151,13.54592 31.1836,21.12833 55.62267,30.01364 2.75,0.99981 6.36531,3.29927 8.03401,5.1099 2.97112,3.2238 3.23027,3.29807 12.5,3.58244 22.01608,0.67537 213.57448,0.20613 214.71599,-0.52597 z m -328.75,-301.18365 c 0.684689,-0.825 1.469889,-1.5 1.744889,-1.5 0.275,0 -0.0602,0.675 -0.744889,1.5 -0.684689,0.825 -1.469889,1.5 -1.744889,1.5 -0.275,0 0.0602,-0.675 0.744889,-1.5 z m 335.01203,225.404 c 3.80246,-0.81548 5.28853,-1.64731 5.80618,-3.25 0.91859,-2.84408 -0.30557,-193.38315 -1.26429,-196.78468 -0.71715,-2.54443 -1.00524,-2.63548 -8.78669,-2.7769 -4.42489,-0.0804 -8.32019,-0.31246 -8.65624,-0.51566 -0.33604,-0.2032 -38.41099,-0.51822 -84.61099,-0.70004 -64.51656,-0.25391 -86.08751,-0.0328 -93,0.95309 -31.45091,4.48588 -57.62779,19.36849 -75.05218,42.67019 -7.86892,10.52312 -14.91924,25.44196 -17.44909,36.92314 -1.58355,7.18658 -1.33337,26.83039 0.46051,36.15912 4.37358,22.74404 14.35102,42.37298 28.96827,56.99023 14.09599,14.09599 30.1844,22.58743 52.25307,27.5791 9.63345,2.17897 11.53338,2.23227 100.31942,2.8143 49.775,0.3263 91.71535,0.69246 93.20078,0.81369 1.48543,0.12123 5.00049,-0.27278 7.81125,-0.87558 z"
       id="path3796"
       inkscape:connector-curvature="0" />
    <path
       style="fill:#176e98"
       d="m -137.44048,506.80161 c -0.33085,-0.86218 -0.26429,-4.12468 0.14791,-7.25 0.41219,-3.12533 0.65523,-6.80741 0.54009,-8.18241 -0.61277,-7.31708 -1.02874,-215.65607 -0.44325,-222 l 0.69218,-7.5 1.3976,4 c 1.51282,4.32976 6.32978,8.93128 6.32978,6.04668 0,-0.85067 0.48032,-1.54668 1.06739,-1.54668 0.58706,0 0.84528,0.7875 0.57381,1.75 -0.27147,0.9625 -1.26117,6.475 -2.19933,12.25 -2.81215,17.31053 -0.66423,59.04094 3.50004,68 0.63912,1.375 1.80545,3.66917 2.59185,5.09816 0.78641,1.42899 2.15602,5.47899 3.04359,9 1.86477,7.39761 9.65328,24.12225 14.62354,31.40184 17.111547,25.06207 31.06979,40.87272 47.67644,54.00364 17.13151,13.54592 31.1836,21.12833 55.62267,30.01364 2.75,0.99981 6.39859,3.3356 8.10797,5.19064 l 3.10797,3.3728 111.66365,0.23802 c 71.7909,0.15303 112.013,-0.11133 112.64203,-0.74036 0.59226,-0.59226 0.97838,-12.27326 0.97838,-29.59838 l 0,-28.62 3.5,-4.08897 c 3.95041,-4.61516 4.43861,-7.21282 1.5,-7.98128 -2.53749,-0.66357 -2.6126,-2.28975 -0.10576,-2.28975 3.03184,0 8.10029,-5.38476 8.14304,-8.65121 0.0205,-1.56683 0.0149,-41.54879 -0.0124,-88.84879 -0.0457,-79.11351 -0.84605,-110.71876 -2.85261,-112.64556 -0.36975,-0.35507 -44.54728,-0.80452 -98.17228,-0.9988 -104.74569,-0.37948 -103.95122,-0.41067 -121.88555,4.78488 -9.98335,2.89216 -24.48168,9.94917 -32.11445,15.63157 -18.39504,13.69466 -32.3201,35.23236 -37.64686,58.22791 -4.16858,17.99573 -1.35621,43.84502 7.02671,64.5844 9.86054,24.39502 24.80187,40.89577 49.35172,54.50252 5.07737,2.81413 9.00419,5.34399 8.72627,5.6219 -0.27791,0.27792 1.86788,1.44044 4.76843,2.58339 7.31999,2.88439 3.66723,2.73267 -4.97469,-0.20664 -7.61383,-2.58963 -21.50604,-9.29988 -26.68269,-12.88834 -22.76076,-15.77777 -41.79594,-35.11932 -45.07841,-45.80394 -0.40439,-1.31631 -1.09179,-2.84329 -1.52755,-3.39329 -1.7099,-2.15816 -6.16647,-15.4112 -7.73416,-23 -1.16084,-5.61937 -1.66018,-13.20763 -1.678,-25.5 -0.0232,-16.03782 0.20831,-18.37731 2.77131,-28 3.32466,-12.48228 11.63917,-30.00861 18.59535,-39.19752 19.01808,-25.1223 44.31936,-38.94776 82.25382,-44.94624 5.25713,-0.83129 33.50629,-1.08867 99.93674,-0.9105 l 92.60799,0.24837 0.62835,-2.34705 c 0.3456,-1.29088 0.63451,-14.29081 0.64202,-28.88872 l 0.0137,-26.54166 3.5,-3.71066 c 3.94716,-4.18473 4.445,-6.64614 1.5,-7.41627 -2.46416,-0.64439 -2.63962,-2.27661 -0.25,-2.32571 0.9625,-0.0198 3.00649,-1.06433 4.54221,-2.32122 l 2.7922,-2.28526 -0.0627,-204.45111 c -0.0345,-112.44811 0.24113,-205.97045 0.61252,-207.82742 0.6333,-3.16647 0.76155,-3.25831 2.06358,-1.47767 0.76358,1.04425 1.70645,1.67364 2.09528,1.39864 0.38882,-0.275 0.8206,85.87865 0.95952,191.45257 0.13891,105.57391 0.61499,192.31499 1.05797,192.75797 0.44297,0.44297 3.47932,-0.26548 6.74743,-1.57434 5.6871,-2.27765 7.29345,-2.40421 37.44203,-2.95015 33.35411,-0.60398 45.92575,-1.98239 63,-6.90761 11.30464,-3.26093 31.7948,-11.44342 38,-15.17483 3.025,-1.81904 6.89008,-3.97839 8.58908,-4.79855 7.0844,-3.4199 27.72993,-20.00428 38.91092,-31.25682 17.17669,-17.28661 29.35173,-35.48724 40.16837,-60.04824 18.03324,-40.94749 19.41392,-91.71362 3.78036,-139 -4.88419,-14.77308 -7.99374,-22.72294 -10.36536,-26.5 -0.51802,-0.825 -1.82393,-3.525 -2.90203,-6 -5.82536,-13.37331 -7.37559,-16.44214 -9.7031,-19.20823 -1.40375,-1.66827 -3.14127,-4.44287 -3.86115,-6.16578 -2.20223,-5.27057 -24.13478,-28.57247 -31.64999,-33.62599 -2.04479,-1.375 -7.56851,-5.09589 -12.27492,-8.26865 -12.26351,-8.26727 -30.96164,-17.04088 -47.54162,-22.30766 -7.89218,-2.50702 -14.11337,-4.79426 -13.82487,-5.08275 0.49087,-0.49087 1.95174,-0.10576 12.17427,3.20934 6.76785,2.19477 10.84064,2.8099 10.04132,1.51657 -1.26979,-2.05455 4.36986,-0.11775 19.95868,6.85433 48.04974,21.4902 86.35106,63.22352 105.15625,114.57882 11.69516,31.93842 15.49841,67.5873 10.59698,99.32832 -13.68598,88.62845 -79.6732,157.11607 -166.83549,173.15721 -16.3677,3.01227 -17.70813,3.09996 -56.34218,3.68568 -21.76658,0.33 -40.08624,1.00104 -40.71037,1.4912 -0.83949,0.65931 -1.13896,52.86006 -1.15091,200.6144 -0.009,109.84775 -0.0607,201.63569 -0.11523,203.97319 l -0.0991,4.25 -193.53138,0 c -174.81424,0 -193.58957,-0.15161 -194.13293,-1.56759 z m 103.16431,-2.47925 c 8.8,-0.57728 19.75829,-1.29712 24.35175,-1.59963 4.59347,-0.30251 7.96847,-0.91047 7.5,-1.35102 -0.46846,-0.44055 -6.92675,-3.23667 -14.35175,-6.21361 -26.8457,-10.76334 -50.96996,-27.95107 -70.171438,-49.99482 -18.138092,-20.82297 -34.673592,-51.16823 -40.979712,-75.20427 -3.10666,-11.8412 -4.38068,-14.35238 -5.31914,-10.48445 -0.31956,1.31705 -0.45697,34.11964 -0.30536,72.89464 l 0.27565,70.5 8.99619,0.74873 c 4.94791,0.4118 9.44791,0.93878 10,1.17105 2.12888,0.89566 64.8104,0.53007 80.00381,-0.46662 z M -137.24135,218.1192 c -0.94096,-10.72929 -0.1743,-542.03437 0.78428,-543.51631 0.4505,-0.69647 1.238,-1.00742 1.75,-0.69098 1.02708,0.63477 1.34905,547.20404 0.32391,549.8755 -1.26177,3.28813 -2.24346,1.34131 -2.85819,-5.66821 z m 383.68264,-545.77527 c -1.9541,-3.94959 -1.95568,-4.04446 -0.0838,-5.04624 1.04924,-0.56154 2.34841,-0.74861 2.88705,-0.41572 1.22628,0.75791 1.30342,9.48723 0.0838,9.48723 -0.49252,0 -1.79169,-1.81137 -2.88704,-4.02527 z m -373.67476,-2.90563 c -0.31643,-0.512 -0.15315,-1.19182 0.36284,-1.51072 1.34365,-0.83042 352.9215,-0.68797 361.47546,0.14646 6.81092,0.6644 6.9459,0.72659 3.119,1.43718 -5.99603,1.11334 -364.26838,1.04176 -364.95729,-0.0729 z"
       id="path3794"
       inkscape:connector-curvature="0" />
    <path
       style="fill:#033755"
       d="m -137.44048,506.80161 c -0.33085,-0.86218 -0.26429,-4.12468 0.14791,-7.25 0.41219,-3.12533 0.65523,-6.80741 0.54009,-8.18241 -0.60753,-7.25457 -1.0314,-215.64093 -0.45156,-222 l 0.68387,-7.5 1.34241,3.81575 c 0.73833,2.09867 2.31682,4.60477 3.50774,5.56912 2.12339,1.71942 2.1406,1.94734 0.88878,11.77027 -1.7098,13.41663 -0.80968,51.88123 1.45517,62.18285 2.1004,9.55366 9.1702,33.01797 11.74726,38.98855 8.72788,20.22092 10.56964,23.47547 21.415394,37.84302 4.894279,6.48353 19.911526,20.97985 31.279236,30.19419 14.38544,11.66044 37.57296,24.75826 51.60801,29.15158 6.57206,2.05721 9.33969,3.83413 9.679,6.21427 0.77487,5.43542 -3.34796,5.24774 121.71964,5.54087 106.7739,0.25026 115.537,0.14525 117.25,-1.40499 1.71991,-1.5565 1.85136,-3.71371 1.85136,-30.38296 l 0,-28.70751 3.0226,-3.80344 c 3.94658,-4.96613 4.68511,-8.03207 2.51296,-10.43228 -1.60941,-1.77838 -1.59001,-1.93978 0.35856,-2.98262 1.13302,-0.60638 2.55225,-2.0222 3.15383,-3.14626 0.7698,-1.43839 1.0696,-28.16396 1.01215,-90.22709 -0.0751,-81.12786 -0.87402,-112.89513 -2.88782,-114.82888 -0.36975,-0.35507 -44.54728,-0.80452 -98.17228,-0.9988 -104.74569,-0.37948 -103.95122,-0.41067 -121.88555,4.78488 -9.98335,2.89216 -24.48168,9.94917 -32.11445,15.63157 -18.39504,13.69466 -32.3201,35.23236 -37.64686,58.22791 -4.16858,17.99573 -1.35621,43.84502 7.02671,64.5844 9.87617,24.43371 24.50055,40.56945 49.62015,54.74819 11.38664,6.42718 7.8143,6.51967 -5.77902,0.14963 -18.99938,-8.90341 -34.76356,-24.61545 -49.52267,-49.35886 -2.58407,-4.33215 -4.69831,-8.20896 -4.69831,-8.61514 0,-0.40618 -0.82946,-1.81169 -1.84323,-3.12336 -2.527,-3.26954 -6.66735,-15.71104 -8.575,-25.7674 -6.01273,-31.69653 4.58254,-65.47725 28.36537,-90.43678 16.75887,-17.58805 36.63658,-28.34324 62.55286,-33.84535 l 11,-2.33533 95.82994,0 c 93.7068,0 95.86141,-0.043 97.25,-1.94113 1.14467,-1.56468 1.42006,-7.23552 1.42006,-29.24135 l 0,-27.30021 3.5,-4.58525 c 3.84583,-5.03831 4.33463,-7.49449 1.89449,-9.51962 -1.44658,-1.20056 -1.34344,-1.54142 1.04201,-3.44351 l 2.64752,-2.11105 0.0472,-205.42894 c 0.0259,-112.98592 0.3721,-206.55394 0.76925,-207.92894 l 0.7221,-2.5 1.18871,2.18426 c 0.90601,1.66477 1.19908,47.32825 1.23227,192 0.0388,169.29843 0.3442,197.03682 2.18938,198.882 0.26784,0.26784 2.73675,-1.027 5.48646,-2.87742 4.9826,-3.35304 5.05118,-3.36665 20.29904,-4.02662 8.41476,-0.36422 21.64051,-0.66591 29.39056,-0.67042 34.2749,-0.02 60.05888,-6.05399 90.10918,-21.08758 30.24782,-15.13239 54.086,-36.13311 72.73829,-64.08022 33.1399,-49.65422 41.62336,-109.58802 24.88776,-175.82664 -3.28624,-13.00676 -4.99319,-17.59519 -10.60234,-28.5 -18.75079,-36.45361 -48.68354,-64.71292 -90.05353,-85.01894 -8.59587,-4.21919 -15.45944,-7.84067 -15.25237,-8.04773 0.83068,-0.83069 8.35402,1.95086 21.50218,7.94984 47.2391,21.55332 85.3462,63.4013 103.91809,114.11947 11.69516,31.93842 15.49841,67.5873 10.59698,99.32832 C 501.79112,9.82597 435.8039,78.31359 348.64161,94.35473 c -16.3677,3.01227 -17.70813,3.09996 -56.34218,3.68568 -21.76658,0.33 -40.08624,1.00104 -40.71037,1.4912 -0.83949,0.65931 -1.13896,52.86006 -1.15091,200.6144 -0.009,109.84775 -0.0607,201.63569 -0.11523,203.97319 l -0.0991,4.25 -193.53138,0 c -174.81424,0 -193.58957,-0.15161 -194.13293,-1.56759 z m 103.16431,-2.47925 c 8.8,-0.57728 19.75829,-1.29712 24.35175,-1.59963 4.59347,-0.30251 7.96847,-0.91047 7.5,-1.35102 -0.46846,-0.44055 -6.92675,-3.23667 -14.35175,-6.21361 -26.8457,-10.76334 -50.96996,-27.95107 -70.171438,-49.99482 -18.138092,-20.82297 -34.673592,-51.16823 -40.979712,-75.20427 -3.10666,-11.8412 -4.38068,-14.35238 -5.31914,-10.48445 -0.31956,1.31705 -0.45697,34.11964 -0.30536,72.89464 l 0.27565,70.5 8.99619,0.74873 c 4.94791,0.4118 9.44791,0.93878 10,1.17105 2.12888,0.89566 64.8104,0.53007 80.00381,-0.46662 z M -137.24135,218.1192 c -0.94096,-10.72929 -0.1743,-542.03437 0.78428,-543.51631 0.4505,-0.69647 1.238,-1.00742 1.75,-0.69098 1.02708,0.63477 1.34905,547.20404 0.32391,549.8755 -1.26177,3.28813 -2.24346,1.34131 -2.85819,-5.66821 z m 383.68264,-545.77527 c -1.9541,-3.94959 -1.95568,-4.04446 -0.0838,-5.04624 1.04924,-0.56154 2.34841,-0.74861 2.88705,-0.41572 1.22628,0.75791 1.30342,9.48723 0.0838,9.48723 -0.49252,0 -1.79169,-1.81137 -2.88704,-4.02527 z m -373.67476,-2.90563 c -0.31643,-0.512 -0.15315,-1.19182 0.36284,-1.51072 1.34365,-0.83042 352.9215,-0.68797 361.47546,0.14646 6.81092,0.6644 6.9459,0.72659 3.119,1.43718 -5.99603,1.11334 -364.26838,1.04176 -364.95729,-0.0729 z"
       id="path3792"
       inkscape:connector-curvature="0" />
    <path
       style="fill:#141a1f"
       d="m -137.44048,506.80161 c -0.33085,-0.86218 -0.26429,-4.12468 0.14791,-7.25 0.41219,-3.12533 0.65523,-6.80741 0.54009,-8.18241 -0.60753,-7.25457 -1.0314,-215.64093 -0.45156,-222 l 0.68387,-7.5 1.38952,3.95181 c 0.76424,2.1735 1.9015,4.26823 2.52724,4.65496 0.82316,0.50874 0.88854,3.14861 0.23645,9.54819 -1.57929,15.49908 -1.03862,50.63873 0.93617,60.84504 4.01837,20.76802 12.57922,46.54746 21.12479,63.61346 6.48722,12.95533 22.015238,33.64374 34.0656,45.38654 26.64038,25.96043 54.61248,41.2213 87.96423,47.99104 l 16,3.24769 107,0.65542 c 59.03402,0.3616 107.57712,0.27127 108.28741,-0.20151 1.01204,-0.67362 1.31058,-9.63255 1.39574,-41.88445 0.0596,-22.56514 -0.22939,-41.57399 -0.64217,-42.24189 -0.43459,-0.70318 0.16457,-2.18842 1.42335,-3.52833 l 2.17386,-2.31397 -0.0877,-90.362 c -0.0811,-83.50235 -0.80414,-111.90612 -2.90234,-114.01269 -0.35646,-0.35788 -44.97311,-0.78633 -99.14811,-0.9521 -109.05235,-0.3337 -105.40962,-0.51399 -125.48059,6.2104 -32.86167,11.00967 -57.21394,38.0623 -65.16627,72.39239 -2.61372,11.28342 -2.34092,30.54103 0.62331,44 6.61816,30.04955 22.04594,53.32992 46.02355,69.44906 5.225,3.51255 8.6,6.03993 7.5,5.61641 -1.1,-0.42352 -3.35,-1.247 -5,-1.82995 -9.41493,-3.32632 -25.73783,-17.91395 -35.14896,-31.41228 -15.2056,-21.80933 -22.57648,-47.3169 -21.01445,-72.72226 0.79316,-12.90018 2.58774,-20.20983 8.17004,-33.27816 5.48486,-12.84021 12.77436,-23.36927 23.14812,-33.43549 14.65205,-14.21767 30.3724,-22.39197 53.94554,-28.0507 l 13.89967,-3.33663 98.5,0 98.5,0 0.52108,-40.5 c 0.30404,-23.63047 0.14242,-41.02848 -0.38801,-41.76876 -0.59387,-0.82882 -0.32646,-1.91256 0.77121,-3.12547 1.5626,-1.72666 1.67589,-16.13841 1.61743,-205.75334 -0.0346,-112.14314 0.24593,-205.44062 0.62335,-207.32772 0.57684,-2.88422 0.808,-3.11978 1.45029,-1.4779 0.42025,1.07425 0.83513,87.67819 0.92197,192.45319 0.0868,104.775 0.45597,192.72699 0.82029,195.44887 l 0.66239,4.94887 38.5,-0.26162 c 38.5677,-0.26209 40.95149,-0.43219 64.23378,-4.58345 13.42193,-2.39315 41.32598,-12.25057 48.74835,-17.22089 1.91518,-1.28248 3.75568,-2.33178 4.09,-2.33178 1.23347,0 17.58874,-9.59757 21.30131,-12.5 22.77119,-17.80216 37.00604,-32.27367 49.06322,-49.8789 17.16265,-25.05999 29.54645,-56.68443 33.33252,-85.1211 2.73001,-20.50482 1.97421,-47.38088 -1.91168,-67.97836 -1.65795,-8.7881 -4.372,-19.8131 -6.03123,-24.5 -1.65924,-4.6869 -3.60736,-10.65597 -4.32916,-13.2646 -1.24594,-4.50289 -9.35574,-20.56745 -16.64208,-32.96601 -8.98248,-15.28472 -34.17509,-43.43698 -45.35503,-50.68337 -2.2,-1.42595 -8.5,-5.80071 -14,-9.72169 -5.5,-3.92098 -12.85804,-8.56632 -16.35119,-10.32299 -9.29464,-4.67416 -6.90424,-4.76158 2.94353,-0.10765 31.4967,14.88492 64.08096,46.80009 83.42208,81.70906 21.50729,38.81871 30.24818,86.01007 23.73881,128.16393 -13.67972,88.58813 -79.74755,157.12976 -166.92323,173.17337 -16.26103,2.99264 -17.67013,3.08455 -56.2544,3.66952 -25.86055,0.39206 -40.04615,0.973 -40.93341,1.67631 -1.1028,0.87418 -1.31337,7.18722 -1.12117,33.6144 0.13016,17.89594 0.17867,109.60058 0.10782,203.78808 l -0.12884,171.25 -193.53138,0 c -174.81424,0 -193.58957,-0.15161 -194.13293,-1.56759 z m 103.66431,-2.48776 c 28.49326,-1.73926 32.25273,-2.09364 31.35485,-2.95556 -0.47017,-0.45135 -6.92985,-3.2514 -14.35485,-6.22234 -26.68109,-10.67581 -51.08061,-27.99973 -69.798349,-49.55754 -18.413771,-21.20773 -34.967351,-51.50486 -41.351031,-75.68256 -3.11234,-11.78775 -4.38474,-14.2798 -5.32091,-10.42129 -0.31956,1.31705 -0.45697,34.11964 -0.30536,72.89464 l 0.27565,70.5 8.99619,0.74873 c 4.94791,0.4118 9.44791,0.93878 10,1.17105 2.14295,0.90158 63.92348,0.53696 80.50381,-0.47513 z M -137.24135,218.1192 c -0.94096,-10.72929 -0.1743,-542.03437 0.78428,-543.51631 0.4505,-0.69647 1.238,-1.00742 1.75,-0.69098 1.02708,0.63477 1.34905,547.20404 0.32391,549.8755 -1.26177,3.28813 -2.24346,1.34131 -2.85819,-5.66821 z m 528.46518,-513.75 c -1.925,-1.05389 -3.05,-1.91617 -2.5,-1.91617 0.55,0 2.575,0.86228 4.5,1.91617 1.925,1.05389 3.05,1.91617 2.5,1.91617 -0.55,0 -2.575,-0.86228 -4.5,-1.91617 z m -144.78254,-32.02527 c -1.9541,-3.94959 -1.95568,-4.04446 -0.0838,-5.04624 1.04924,-0.56154 2.34841,-0.74861 2.88705,-0.41572 1.22628,0.75791 1.30342,9.48723 0.0838,9.48723 -0.49252,0 -1.79169,-1.81137 -2.88704,-4.02527 z m -373.07422,-2.86504 c -0.86477,-0.54795 -0.98377,-1.09022 -0.32815,-1.49541 1.40399,-0.86771 352.64427,-0.77974 361.56591,0.0906 6.81092,0.6644 6.9459,0.7266 3.119,1.43718 -5.63788,1.04684 -362.7036,1.01516 -364.35676,-0.0323 z"
       id="path3790"
       inkscape:connector-curvature="0" />
  </g>
  <text
     xml:space="preserve"
     style="font-size:143.35987854px;font-style:normal;font-variant:normal;font-weight:bold;font-stretch:normal;text-align:start;line-height:125%;letter-spacing:0px;word-spacing:0px;writing-mode:lr-tb;text-anchor:start;fill:#000000;fill-opacity:1;stroke:none;font-family:Calibri;-inkscape-font-specification:Calibri Bold"
     id="text3830"
     sodipodi:linespacing="125%"
     transform="matrix(-0.89550427,-0.44505292,0.44505292,-0.89550427,-1912.8837,867.51034)"
     inkscape:export-filename="C:\Users\dampyre\Documents\GitHub\logo-col-prof\desgloce\comunal caldera.png"
     inkscape:export-xdpi="90"
     inkscape:export-ydpi="90"><textPath
       xlink:href="#path3845"
       id="textPath3847"><tspan
   id="tspan3832">COMUNAL CALDERA</tspan></textPath></text>
  <text
     xml:space="preserve"
     style="font-size:137.63401794px;font-style:normal;font-variant:normal;font-weight:bold;font-stretch:normal;text-align:start;line-height:125%;letter-spacing:0px;word-spacing:0px;writing-mode:lr-tb;text-anchor:start;fill:#000000;fill-opacity:1;stroke:none;font-family:Calibri;-inkscape-font-specification:Calibri Bold"
     id="text3834"
     sodipodi:linespacing="125%"
     y="1176.4191"
     x="-1320.5259"
     transform="scale(0.84441173,1.1842564)"
     inkscape:export-filename="C:\Users\dampyre\Documents\GitHub\logo-col-prof\desgloce\colegio profesores.png"
     inkscape:export-xdpi="90"
     inkscape:export-ydpi="90"><tspan
       sodipodi:role="line"
       id="tspan3836"
       x="-1320.5259"
       y="1176.4191">COLEGIO DE PROFESORES</tspan></text>
  <path
     style="opacity:0.93469388;fill:#0c0c0c;fill-opacity:1;stroke:none"
     d="m -661.25,442.6875 0,413.65625 221.15625,0 0,-0.40625 c 114.18422,-3.51027 205.65625,-94.22784 205.65625,-205.65625 0,-111.42841 -91.47203,-202.17723 -205.65625,-205.6875 l 0,-1.90625 -221.15625,0 z"
     id="path3808"
     clip-path="url(#clipPath3815)"
     inkscape:connector-curvature="0"
     transform="translate(68.837658,-35.405556)"
     inkscape:export-filename="C:\Users\dampyre\Documents\GitHub\logo-col-prof\logo letras.png"
     inkscape:export-xdpi="90"
     inkscape:export-ydpi="90" />
  <rect
     style="opacity:1;fill:none;fill-opacity:1;stroke:#000000;stroke-opacity:1;stroke-width:5.8;stroke-miterlimit:4;stroke-dasharray:none"
     id="rect3828"
     width="376.46359"
     height="830.14648"
     x="-1408.1082"
     y="313.49097"
     inkscape:export-filename="C:\Users\dampyre\Documents\GitHub\logo-col-prof\desglose\logo 1.png"
     inkscape:export-xdpi="90"
     inkscape:export-ydpi="90" />
  <path
     style="opacity:0.93469388;fill:#0c0c0c;fill-opacity:1;stroke:none"
     d="m -647.07892,839.09304 c -93.7094,0.45347 -166.0661,89.19023 -167.0625,192.93746 -0.9588,99.8318 62.3306,180.1003 151.2187,191.0626 l 0,0.062 0.375,0 c 11.1185,1.3468 22.6278,1.6061 34.4688,0.6876 2.4068,-0.1868 4.8024,-0.4241 7.1875,-0.6876 l 186.4062,0 0,-88.125 -144.3125,0 c -1.8465,0.1422 -3.6992,0.2742 -5.5625,0.375 -9.1669,0.4956 -18.0799,0.3516 -26.6875,-0.375 l -0.2812,0 0,-0.031 c -76.6655,1.916 -113.6782,-44.8876 -117.0625,-103.0938 -3.4906,-60.03491 47.0399,-110.85653 129.3125,-104.12493 4.8365,-0.016 9.7467,0.2062 14.7187,0.625 0.7177,0.06 1.4409,0.1216 2.1563,0.1875 l 147.7187,0 0,-88.03128 -190.8125,0 c -0.924,-0.12211 -1.8541,-0.23172 -2.7812,-0.34375 -6.4224,-0.77613 -12.7527,-1.15523 -19,-1.125 z"
     id="path3819"
     inkscape:connector-curvature="0"
     inkscape:export-filename="C:\Users\dampyre\Documents\GitHub\logo-col-prof\logo letras.png"
     inkscape:export-xdpi="90"
     inkscape:export-ydpi="90" />
</svg>
