  0
SECTION
  2
HEADER
  9
$EXTMIN
 10
0.000000
 20
0.000000
  9
$EXTMAX
 10
11.000000
 20
8.500000
  9
$LTSCALE
 40
100.000000
  9
$PDMODE
 70
35
  9
$PDSIZE
 40
80.000000
  0
ENDSEC
  0
SECTION
  2
TABLES
  0
TABLE
  2
LAYER
 70
1
  0
LAYER
  2
CAPA_1
 70
0
 62
1
  6
CONTINUOUS
  0
ENDTAB
  0
ENDSEC
  0
SECTION
  2
BLOCKS
  0
ENDSEC
  0
SECTION
  2
ENTITIES
  0
POLYLINE
  8
CAPA_1
 62
7
 70
1
 66
1
  0
VERTEX
  8
CAPA_1
 62
7
 10
2.727771
 20
7.598034
  0
VERTEX
  8
CAPA_1
 62
7
 10
2.681920
 20
7.645320
 42
-0.299746
  0
VERTEX
  8
CAPA_1
 62
7
 10
2.681190
 20
7.647441
 42
-0.195830
  0
VERTEX
  8
CAPA_1
 62
7
 10
2.681801
 20
7.648159
 42
-0.176591
  0
VERTEX
  8
CAPA_1
 62
7
 10
2.682934
 20
7.648264
  0
VERTEX
  8
CAPA_1
 62
7
 10
2.747417
 20
7.636821
 42
-0.039173
  0
VERTEX
  8
CAPA_1
 62
7
 10
2.737851
 20
7.616827
  0
VERTEX
  8
CAPA_1
 62
7
 10
2.727771
 20
7.598034
  0
VERTEX
  8
CAPA_1
 62
7
 10
2.727771
 20
7.598034
  0
SEQEND
  0
POLYLINE
  8
CAPA_1
 62
7
 70
1
 66
1
  0
VERTEX
  8
CAPA_1
 62
7
 10
2.727642
 20
7.546307
 42
-0.041624
  0
VERTEX
  8
CAPA_1
 62
7
 10
2.712526
 20
7.561583
  0
VERTEX
  8
CAPA_1
 62
7
 10
2.697996
 20
7.577704
  0
VERTEX
  8
CAPA_1
 62
7
 10
2.637841
 20
7.641109
 42
-0.137070
  0
VERTEX
  8
CAPA_1
 62
7
 10
2.643187
 20
7.661767
  0
VERTEX
  8
CAPA_1
 62
7
 10
2.654273
 20
7.682293
  0
VERTEX
  8
CAPA_1
 62
7
 10
2.742552
 20
7.670758
  0
VERTEX
  8
CAPA_1
 62
7
 10
2.830235
 20
7.657211
 42
-0.151981
  0
VERTEX
  8
CAPA_1
 62
7
 10
2.826487
 20
7.640209
  0
VERTEX
  8
CAPA_1
 62
7
 10
2.817516
 20
7.625750
 42
-0.042868
  0
VERTEX
  8
CAPA_1
 62
7
 10
2.797220
 20
7.628272
  0
VERTEX
  8
CAPA_1
 62
7
 10
2.777757
 20
7.631313
  0
VERTEX
  8
CAPA_1
 62
7
 10
2.748563
 20
7.577032
  0
VERTEX
  8
CAPA_1
 62
7
 10
2.774729
 20
7.551259
 42
-0.168567
  0
VERTEX
  8
CAPA_1
 62
7
 10
2.770906
 20
7.534271
 42
0.038021
  0
VERTEX
  8
CAPA_1
 62
7
 10
2.762318
 20
7.518160
 42
-0.150563
  0
VERTEX
  8
CAPA_1
 62
7
 10
2.751392
 20
7.520830
 42
-0.083020
  0
VERTEX
  8
CAPA_1
 62
7
 10
2.743070
 20
7.528246
 42
0.042997
  0
VERTEX
  8
CAPA_1
 62
7
 10
2.727642
 20
7.546307
  0
VERTEX
  8
CAPA_1
 62
7
 10
2.727642
 20
7.546307
  0
SEQEND
  0
POLYLINE
  8
CAPA_1
 62
7
 70
1
 66
1
  0
VERTEX
  8
CAPA_1
 62
7
 10
4.540641
 20
7.570895
 42
-0.309599
  0
VERTEX
  8
CAPA_1
 62
7
 10
4.501258
 20
7.654592
 42
0.076155
  0
VERTEX
  8
CAPA_1
 62
7
 10
4.508577
 20
7.657496
  0
VERTEX
  8
CAPA_1
 62
7
 10
4.513999
 20
7.661069
 42
-0.205385
  0
VERTEX
  8
CAPA_1
 62
7
 10
4.527192
 20
7.664243
 42
0.116496
  0
VERTEX
  8
CAPA_1
 62
7
 10
4.532935
 20
7.627027
 42
0.207885
  0
VERTEX
  8
CAPA_1
 62
7
 10
4.558808
 20
7.601860
 42
0.281552
  0
VERTEX
  8
CAPA_1
 62
7
 10
4.636585
 20
7.643073
 42
0.273929
  0
VERTEX
  8
CAPA_1
 62
7
 10
4.632962
 20
7.679616
 42
0.164947
  0
VERTEX
  8
CAPA_1
 62
7
 10
4.602189
 20
7.703178
 42
-0.090863
  0
VERTEX
  8
CAPA_1
 62
7
 10
4.601716
 20
7.705457
 42
0.021071
  0
VERTEX
  8
CAPA_1
 62
7
 10
4.601841
 20
7.709507
 42
0.115031
  0
VERTEX
  8
CAPA_1
 62
7
 10
4.601704
 20
7.710019
 42
0.286581
  0
VERTEX
  8
CAPA_1
 62
7
 10
4.601366
 20
7.710194
 42
-0.190350
  0
VERTEX
  8
CAPA_1
 62
7
 10
4.623791
 20
7.721246
 42
-0.175389
  0
VERTEX
  8
CAPA_1
 62
7
 10
4.643688
 20
7.714070
 42
-0.135858
  0
VERTEX
  8
CAPA_1
 62
7
 10
4.670224
 20
7.674066
 42
-0.177338
  0
VERTEX
  8
CAPA_1
 62
7
 10
4.668056
 20
7.626637
 42
-0.144915
  0
VERTEX
  8
CAPA_1
 62
7
 10
4.637912
 20
7.587468
 42
-0.093988
  0
VERTEX
  8
CAPA_1
 62
7
 10
4.590510
 20
7.564771
 42
-0.198419
  0
VERTEX
  8
CAPA_1
 62
7
 10
4.540641
 20
7.570895
  0
VERTEX
  8
CAPA_1
 62
7
 10
4.540641
 20
7.570895
  0
SEQEND
  0
POLYLINE
  8
CAPA_1
 62
7
 70
1
 66
1
  0
VERTEX
  8
CAPA_1
 62
7
 10
2.776920
 20
7.765385
 42
-0.198043
  0
VERTEX
  8
CAPA_1
 62
7
 10
2.763126
 20
7.775295
 42
-0.175377
  0
VERTEX
  8
CAPA_1
 62
7
 10
2.761085
 20
7.789922
 42
-0.188800
  0
VERTEX
  8
CAPA_1
 62
7
 10
2.778893
 20
7.817020
  0
VERTEX
  8
CAPA_1
 62
7
 10
2.812368
 20
7.792143
 42
-0.154736
  0
VERTEX
  8
CAPA_1
 62
7
 10
2.812988
 20
7.791271
 42
-0.134325
  0
VERTEX
  8
CAPA_1
 62
7
 10
2.812984
 20
7.790318
 42
-0.059394
  0
VERTEX
  8
CAPA_1
 62
7
 10
2.812580
 20
7.789321
  0
VERTEX
  8
CAPA_1
 62
7
 10
2.812003
 20
7.788316
 42
-0.085759
  0
VERTEX
  8
CAPA_1
 62
7
 10
2.797623
 20
7.770516
 42
-0.261783
  0
VERTEX
  8
CAPA_1
 62
7
 10
2.776920
 20
7.765385
  0
VERTEX
  8
CAPA_1
 62
7
 10
2.776920
 20
7.765385
  0
SEQEND
  0
POLYLINE
  8
CAPA_1
 62
7
 70
1
 66
1
  0
VERTEX
  8
CAPA_1
 62
7
 10
2.828594
 20
7.668630
  0
VERTEX
  8
CAPA_1
 62
7
 10
2.803130
 20
7.712060
  0
VERTEX
  8
CAPA_1
 62
7
 10
2.798885
 20
7.725049
 42
-0.081242
  0
VERTEX
  8
CAPA_1
 62
7
 10
2.796838
 20
7.739325
 42
-0.277044
  0
VERTEX
  8
CAPA_1
 62
7
 10
2.751915
 20
7.736180
 42
-0.272842
  0
VERTEX
  8
CAPA_1
 62
7
 10
2.725571
 20
7.771866
 42
-0.177343
  0
VERTEX
  8
CAPA_1
 62
7
 10
2.741116
 20
7.816561
  0
VERTEX
  8
CAPA_1
 62
7
 10
2.767396
 20
7.852382
 42
-0.215061
  0
VERTEX
  8
CAPA_1
 62
7
 10
2.775675
 20
7.858645
 42
-0.151337
  0
VERTEX
  8
CAPA_1
 62
7
 10
2.785437
 20
7.857039
 42
-0.054806
  0
VERTEX
  8
CAPA_1
 62
7
 10
2.795524
 20
7.850894
  0
VERTEX
  8
CAPA_1
 62
7
 10
2.804778
 20
7.843538
  0
VERTEX
  8
CAPA_1
 62
7
 10
2.839317
 20
7.817597
  0
VERTEX
  8
CAPA_1
 62
7
 10
2.910387
 20
7.764712
 42
-0.183598
  0
VERTEX
  8
CAPA_1
 62
7
 10
2.905618
 20
7.750291
  0
VERTEX
  8
CAPA_1
 62
7
 10
2.896038
 20
7.737917
 42
0.064841
  0
VERTEX
  8
CAPA_1
 62
7
 10
2.892811
 20
7.736856
  0
VERTEX
  8
CAPA_1
 62
7
 10
2.889872
 20
7.734895
  0
VERTEX
  8
CAPA_1
 62
7
 10
2.837038
 20
7.773979
 42
0.095339
  0
VERTEX
  8
CAPA_1
 62
7
 10
2.834025
 20
7.771225
 42
0.001272
  0
VERTEX
  8
CAPA_1
 62
7
 10
2.829566
 20
7.764189
 42
-0.077353
  0
VERTEX
  8
CAPA_1
 62
7
 10
2.826233
 20
7.760871
 42
0.166207
  0
VERTEX
  8
CAPA_1
 62
7
 10
2.836520
 20
7.727132
 42
-0.038985
  0
VERTEX
  8
CAPA_1
 62
7
 10
2.855594
 20
7.694933
 42
-0.122787
  0
VERTEX
  8
CAPA_1
 62
7
 10
2.856325
 20
7.689869
 42
-0.066870
  0
VERTEX
  8
CAPA_1
 62
7
 10
2.854964
 20
7.683749
 42
-0.089281
  0
VERTEX
  8
CAPA_1
 62
7
 10
2.847802
 20
7.671467
 42
-0.058014
  0
VERTEX
  8
CAPA_1
 62
7
 10
2.842921
 20
7.666869
 42
-0.097173
  0
VERTEX
  8
CAPA_1
 62
7
 10
2.837786
 20
7.664343
 42
-0.165293
  0
VERTEX
  8
CAPA_1
 62
7
 10
2.832857
 20
7.664669
 42
-0.154092
  0
VERTEX
  8
CAPA_1
 62
7
 10
2.828594
 20
7.668630
  0
VERTEX
  8
CAPA_1
 62
7
 10
2.828594
 20
7.668630
  0
SEQEND
  0
POLYLINE
  8
CAPA_1
 62
7
 70
1
 66
1
  0
VERTEX
  8
CAPA_1
 62
7
 10
4.490368
 20
7.723103
 42
-0.302439
  0
VERTEX
  8
CAPA_1
 62
7
 10
4.452456
 20
7.737263
 42
-0.291989
  0
VERTEX
  8
CAPA_1
 62
7
 10
4.445029
 20
7.777255
 42
-0.200854
  0
VERTEX
  8
CAPA_1
 62
7
 10
4.504420
 20
7.826712
 42
-0.177940
  0
VERTEX
  8
CAPA_1
 62
7
 10
4.524180
 20
7.825089
 42
-0.117230
  0
VERTEX
  8
CAPA_1
 62
7
 10
4.541156
 20
7.812008
 42
-0.117218
  0
VERTEX
  8
CAPA_1
 62
7
 10
4.550843
 20
7.792779
 42
-0.175497
  0
VERTEX
  8
CAPA_1
 62
7
 10
4.548734
 20
7.772714
 42
-0.200158
  0
VERTEX
  8
CAPA_1
 62
7
 10
4.490368
 20
7.723103
  0
VERTEX
  8
CAPA_1
 62
7
 10
4.490368
 20
7.723103
  0
SEQEND
  0
POLYLINE
  8
CAPA_1
 62
7
 70
1
 66
1
  0
VERTEX
  8
CAPA_1
 62
7
 10
4.449014
 20
7.698482
 42
-0.134847
  0
VERTEX
  8
CAPA_1
 62
7
 10
4.413547
 20
7.744428
 42
-0.200715
  0
VERTEX
  8
CAPA_1
 62
7
 10
4.415201
 20
7.800281
 42
-0.097064
  0
VERTEX
  8
CAPA_1
 62
7
 10
4.439546
 20
7.831864
 42
-0.070118
  0
VERTEX
  8
CAPA_1
 62
7
 10
4.471627
 20
7.854428
 42
-0.238140
  0
VERTEX
  8
CAPA_1
 62
7
 10
4.527623
 20
7.859493
 42
-0.148772
  0
VERTEX
  8
CAPA_1
 62
7
 10
4.571424
 20
7.822731
 42
-0.199015
  0
VERTEX
  8
CAPA_1
 62
7
 10
4.583030
 20
7.767564
 42
-0.167006
  0
VERTEX
  8
CAPA_1
 62
7
 10
4.554619
 20
7.717372
 42
-0.118040
  0
VERTEX
  8
CAPA_1
 62
7
 10
4.503005
 20
7.687842
 42
-0.244244
  0
VERTEX
  8
CAPA_1
 62
7
 10
4.449014
 20
7.698482
  0
VERTEX
  8
CAPA_1
 62
7
 10
4.449014
 20
7.698482
  0
SEQEND
  0
POLYLINE
  8
CAPA_1
 62
7
 70
1
 66
1
  0
VERTEX
  8
CAPA_1
 62
7
 10
2.913901
 20
7.806234
  0
VERTEX
  8
CAPA_1
 62
7
 10
2.943475
 20
7.836512
 42
-0.039204
  0
VERTEX
  8
CAPA_1
 62
7
 10
2.947877
 20
7.840587
  0
VERTEX
  8
CAPA_1
 62
7
 10
2.952679
 20
7.844725
 42
0.109995
  0
VERTEX
  8
CAPA_1
 62
7
 10
2.955747
 20
7.848888
 42
0.287774
  0
VERTEX
  8
CAPA_1
 62
7
 10
2.954944
 20
7.853039
 42
0.043976
  0
VERTEX
  8
CAPA_1
 62
7
 10
2.939211
 20
7.868653
 42
-0.049989
  0
VERTEX
  8
CAPA_1
 62
7
 10
2.935376
 20
7.872818
  0
VERTEX
  8
CAPA_1
 62
7
 10
2.931386
 20
7.877639
 42
0.040804
  0
VERTEX
  8
CAPA_1
 62
7
 10
2.929377
 20
7.879515
 42
0.088351
  0
VERTEX
  8
CAPA_1
 62
7
 10
2.927382
 20
7.880616
 42
0.158151
  0
VERTEX
  8
CAPA_1
 62
7
 10
2.925418
 20
7.880631
 42
0.138082
  0
VERTEX
  8
CAPA_1
 62
7
 10
2.923503
 20
7.879247
 42
0.019100
  0
VERTEX
  8
CAPA_1
 62
7
 10
2.907741
 20
7.863528
 42
-0.048443
  0
VERTEX
  8
CAPA_1
 62
7
 10
2.899544
 20
7.854363
 42
-0.101643
  0
VERTEX
  8
CAPA_1
 62
7
 10
2.890476
 20
7.848711
 42
-0.190605
  0
VERTEX
  8
CAPA_1
 62
7
 10
2.881079
 20
7.849014
 42
-0.146794
  0
VERTEX
  8
CAPA_1
 62
7
 10
2.871896
 20
7.857709
 42
-0.148015
  0
VERTEX
  8
CAPA_1
 62
7
 10
2.869777
 20
7.863669
 42
-0.166610
  0
VERTEX
  8
CAPA_1
 62
7
 10
2.871467
 20
7.868143
 42
-0.049184
  0
VERTEX
  8
CAPA_1
 62
7
 10
2.875388
 20
7.872056
  0
VERTEX
  8
CAPA_1
 62
7
 10
2.879961
 20
7.876334
  0
VERTEX
  8
CAPA_1
 62
7
 10
2.895769
 20
7.892200
  0
VERTEX
  8
CAPA_1
 62
7
 10
2.900113
 20
7.896338
 42
0.079812
  0
VERTEX
  8
CAPA_1
 62
7
 10
2.903113
 20
7.900477
 42
0.190862
  0
VERTEX
  8
CAPA_1
 62
7
 10
2.903503
 20
7.904706
 42
0.153678
  0
VERTEX
  8
CAPA_1
 62
7
 10
2.900016
 20
7.909117
 42
-0.080084
  0
VERTEX
  8
CAPA_1
 62
7
 10
2.883719
 20
7.925445
 42
0.069033
  0
VERTEX
  8
CAPA_1
 62
7
 10
2.881574
 20
7.927637
 42
0.107084
  0
VERTEX
  8
CAPA_1
 62
7
 10
2.879525
 20
7.928616
 42
0.200774
  0
VERTEX
  8
CAPA_1
 62
7
 10
2.875612
 20
7.927731
 42
0.061134
  0
VERTEX
  8
CAPA_1
 62
7
 10
2.871781
 20
7.924386
  0
VERTEX
  8
CAPA_1
 62
7
 10
2.867830
 20
7.920175
  0
VERTEX
  8
CAPA_1
 62
7
 10
2.852014
 20
7.904454
 42
-0.032080
  0
VERTEX
  8
CAPA_1
 62
7
 10
2.836071
 20
7.888915
 42
-0.212572
  0
VERTEX
  8
CAPA_1
 62
7
 10
2.831147
 20
7.888005
 42
-0.107734
  0
VERTEX
  8
CAPA_1
 62
7
 10
2.825890
 20
7.890565
 42
-0.113364
  0
VERTEX
  8
CAPA_1
 62
7
 10
2.817793
 20
7.900341
 42
-0.227587
  0
VERTEX
  8
CAPA_1
 62
7
 10
2.817692
 20
7.909687
 42
-0.095076
  0
VERTEX
  8
CAPA_1
 62
7
 10
2.824244
 20
7.918380
 42
0.020546
  0
VERTEX
  8
CAPA_1
 62
7
 10
2.842411
 20
7.935033
  0
VERTEX
  8
CAPA_1
 62
7
 10
2.873868
 20
7.966903
 42
-0.229299
  0
VERTEX
  8
CAPA_1
 62
7
 10
2.883359
 20
7.970912
 42
-0.137103
  0
VERTEX
  8
CAPA_1
 62
7
 10
2.893043
 20
7.966832
 42
-0.044809
  0
VERTEX
  8
CAPA_1
 62
7
 10
2.902335
 20
7.958455
  0
VERTEX
  8
CAPA_1
 62
7
 10
2.910650
 20
7.949575
  0
VERTEX
  8
CAPA_1
 62
7
 10
2.941975
 20
7.918218
 42
-0.016533
  0
VERTEX
  8
CAPA_1
 62
7
 10
2.973092
 20
7.886688
 42
0.044371
  0
VERTEX
  8
CAPA_1
 62
7
 10
2.981561
 20
7.878510
  0
VERTEX
  8
CAPA_1
 62
7
 10
2.991109
 20
7.870137
 42
-0.096351
  0
VERTEX
  8
CAPA_1
 62
7
 10
2.997771
 20
7.861294
 42
-0.229940
  0
VERTEX
  8
CAPA_1
 62
7
 10
2.997582
 20
7.851706
 42
-0.093815
  0
VERTEX
  8
CAPA_1
 62
7
 10
2.983466
 20
7.834718
  0
VERTEX
  8
CAPA_1
 62
7
 10
2.966904
 20
7.819015
  0
VERTEX
  8
CAPA_1
 62
7
 10
2.935853
 20
7.787386
 42
-0.215256
  0
VERTEX
  8
CAPA_1
 62
7
 10
2.921862
 20
7.793083
 42
-0.137537
  0
VERTEX
  8
CAPA_1
 62
7
 10
2.913901
 20
7.806234
  0
VERTEX
  8
CAPA_1
 62
7
 10
2.913901
 20
7.806234
  0
SEQEND
  0
POLYLINE
  8
CAPA_1
 62
7
 70
1
 66
1
  0
VERTEX
  8
CAPA_1
 62
7
 10
4.336921
 20
7.826305
  0
VERTEX
  8
CAPA_1
 62
7
 10
4.385134
 20
7.886379
  0
VERTEX
  8
CAPA_1
 62
7
 10
4.409972
 20
7.916255
  0
VERTEX
  8
CAPA_1
 62
7
 10
4.416904
 20
7.924756
 42
0.035504
  0
VERTEX
  8
CAPA_1
 62
7
 10
4.417965
 20
7.926425
 42
0.047643
  0
VERTEX
  8
CAPA_1
 62
7
 10
4.418226
 20
7.927054
 42
0.120596
  0
VERTEX
  8
CAPA_1
 62
7
 10
4.418266
 20
7.927511
 42
0.251918
  0
VERTEX
  8
CAPA_1
 62
7
 10
4.418055
 20
7.927772
 42
0.132574
  0
VERTEX
  8
CAPA_1
 62
7
 10
4.417562
 20
7.927813
 42
0.071850
  0
VERTEX
  8
CAPA_1
 62
7
 10
4.415609
 20
7.927129
 42
0.040649
  0
VERTEX
  8
CAPA_1
 62
7
 10
4.406634
 20
7.921910
  0
VERTEX
  8
CAPA_1
 62
7
 10
4.398761
 20
7.916773
  0
VERTEX
  8
CAPA_1
 62
7
 10
4.330687
 20
7.875919
 42
0.013342
  0
VERTEX
  8
CAPA_1
 62
7
 10
4.313137
 20
7.863929
 42
-0.079029
  0
VERTEX
  8
CAPA_1
 62
7
 10
4.304168
 20
7.859847
 42
-0.148693
  0
VERTEX
  8
CAPA_1
 62
7
 10
4.294724
 20
7.860221
 42
-0.111170
  0
VERTEX
  8
CAPA_1
 62
7
 10
4.286949
 20
7.865607
  0
VERTEX
  8
CAPA_1
 62
7
 10
4.279357
 20
7.872838
 42
-0.274549
  0
VERTEX
  8
CAPA_1
 62
7
 10
4.275936
 20
7.881143
 42
-0.052950
  0
VERTEX
  8
CAPA_1
 62
7
 10
4.276973
 20
7.885813
  0
VERTEX
  8
CAPA_1
 62
7
 10
4.278615
 20
7.890471
  0
VERTEX
  8
CAPA_1
 62
7
 10
4.307699
 20
7.970385
 42
0.016690
  0
VERTEX
  8
CAPA_1
 62
7
 10
4.315001
 20
7.990478
 42
-0.031260
  0
VERTEX
  8
CAPA_1
 62
7
 10
4.316896
 20
7.995738
 42
0.047868
  0
VERTEX
  8
CAPA_1
 62
7
 10
4.320827
 20
8.006611
 42
0.059224
  0
VERTEX
  8
CAPA_1
 62
7
 10
4.320834
 20
8.007365
 42
0.130688
  0
VERTEX
  8
CAPA_1
 62
7
 10
4.320649
 20
8.007875
 42
0.198308
  0
VERTEX
  8
CAPA_1
 62
7
 10
4.320246
 20
8.008108
 42
0.114138
  0
VERTEX
  8
CAPA_1
 62
7
 10
4.319600
 20
8.008032
 42
0.080657
  0
VERTEX
  8
CAPA_1
 62
7
 10
4.318195
 20
8.007279
 42
0.039579
  0
VERTEX
  8
CAPA_1
 62
7
 10
4.316678
 20
8.005948
 42
0.026103
  0
VERTEX
  8
CAPA_1
 62
7
 10
4.307124
 20
7.993790
  0
VERTEX
  8
CAPA_1
 62
7
 10
4.294975
 20
7.979735
  0
VERTEX
  8
CAPA_1
 62
7
 10
4.245962
 20
7.918885
 42
-0.184209
  0
VERTEX
  8
CAPA_1
 62
7
 10
4.238740
 20
7.913485
 42
-0.149237
  0
VERTEX
  8
CAPA_1
 62
7
 10
4.230165
 20
7.914015
 42
-0.165780
  0
VERTEX
  8
CAPA_1
 62
7
 10
4.214987
 20
7.926800
 42
-0.218806
  0
VERTEX
  8
CAPA_1
 62
7
 10
4.213679
 20
7.934967
 42
-0.109835
  0
VERTEX
  8
CAPA_1
 62
7
 10
4.218229
 20
7.942579
 42
0.017463
  0
VERTEX
  8
CAPA_1
 62
7
 10
4.232366
 20
7.957426
  0
VERTEX
  8
CAPA_1
 62
7
 10
4.281570
 20
8.017822
  0
VERTEX
  8
CAPA_1
 62
7
 10
4.307004
 20
8.048950
 42
-0.166709
  0
VERTEX
  8
CAPA_1
 62
7
 10
4.314561
 20
8.055135
 42
-0.150006
  0
VERTEX
  8
CAPA_1
 62
7
 10
4.323146
 20
8.055142
 42
-0.099100
  0
VERTEX
  8
CAPA_1
 62
7
 10
4.340471
 20
8.044857
 42
-0.107749
  0
VERTEX
  8
CAPA_1
 62
7
 10
4.354181
 20
8.028747
 42
-0.241626
  0
VERTEX
  8
CAPA_1
 62
7
 10
4.354230
 20
8.009220
 42
0.043423
  0
VERTEX
  8
CAPA_1
 62
7
 10
4.346522
 20
7.988543
  0
VERTEX
  8
CAPA_1
 62
7
 10
4.340017
 20
7.968567
  0
VERTEX
  8
CAPA_1
 62
7
 10
4.326456
 20
7.928891
  0
VERTEX
  8
CAPA_1
 62
7
 10
4.321152
 20
7.914866
 42
0.061934
  0
VERTEX
  8
CAPA_1
 62
7
 10
4.320845
 20
7.912794
 42
0.068627
  0
VERTEX
  8
CAPA_1
 62
7
 10
4.320946
 20
7.912019
 42
0.114363
  0
VERTEX
  8
CAPA_1
 62
7
 10
4.321250
 20
7.911452
 42
0.134327
  0
VERTEX
  8
CAPA_1
 62
7
 10
4.321782
 20
7.911119
 42
0.094712
  0
VERTEX
  8
CAPA_1
 62
7
 10
4.322565
 20
7.911046
 42
0.084835
  0
VERTEX
  8
CAPA_1
 62
7
 10
4.326175
 20
7.912097
  0
VERTEX
  8
CAPA_1
 62
7
 10
4.338943
 20
7.919940
  0
VERTEX
  8
CAPA_1
 62
7
 10
4.407500
 20
7.960787
 42
-0.163814
  0
VERTEX
  8
CAPA_1
 62
7
 10
4.426663
 20
7.966209
 42
-0.191261
  0
VERTEX
  8
CAPA_1
 62
7
 10
4.444456
 20
7.958231
  0
VERTEX
  8
CAPA_1
 62
7
 10
4.460267
 20
7.944154
 42
-0.119557
  0
VERTEX
  8
CAPA_1
 62
7
 10
4.465095
 20
7.936672
 42
-0.228502
  0
VERTEX
  8
CAPA_1
 62
7
 10
4.463652
 20
7.928468
 42
-0.033657
  0
VERTEX
  8
CAPA_1
 62
7
 10
4.439609
 20
7.897290
  0
VERTEX
  8
CAPA_1
 62
7
 10
4.414584
 20
7.867507
  0
VERTEX
  8
CAPA_1
 62
7
 10
4.365743
 20
7.807968
 42
-0.240217
  0
VERTEX
  8
CAPA_1
 62
7
 10
4.350373
 20
7.813238
 42
0.016243
  0
VERTEX
  8
CAPA_1
 62
7
 10
4.336921
 20
7.826305
  0
VERTEX
  8
CAPA_1
 62
7
 10
4.336921
 20
7.826305
  0
SEQEND
  0
POLYLINE
  8
CAPA_1
 62
7
 70
1
 66
1
  0
VERTEX
  8
CAPA_1
 62
7
 10
2.993855
 20
7.981861
 42
-0.305358
  0
VERTEX
  8
CAPA_1
 62
7
 10
2.993862
 20
8.021216
 42
-0.132030
  0
VERTEX
  8
CAPA_1
 62
7
 10
3.024779
 20
8.050277
  0
VERTEX
  8
CAPA_1
 62
7
 10
3.088647
 20
7.962497
  0
VERTEX
  8
CAPA_1
 62
7
 10
3.089461
 20
7.961509
 42
0.070068
  0
VERTEX
  8
CAPA_1
 62
7
 10
3.089461
 20
7.961509
 42
-0.215410
  0
VERTEX
  8
CAPA_1
 62
7
 10
3.089502
 20
7.961402
 42
0.129857
  0
VERTEX
  8
CAPA_1
 62
7
 10
3.089502
 20
7.961402
 42
0.135163
  0
VERTEX
  8
CAPA_1
 62
7
 10
3.087906
 20
7.959876
 42
-0.164356
  0
VERTEX
  8
CAPA_1
 62
7
 10
3.062774
 20
7.940670
 42
-0.151335
  0
VERTEX
  8
CAPA_1
 62
7
 10
3.034454
 20
7.940632
 42
-0.252693
  0
VERTEX
  8
CAPA_1
 62
7
 10
2.993855
 20
7.981861
  0
VERTEX
  8
CAPA_1
 62
7
 10
2.993855
 20
7.981861
  0
SEQEND
  0
POLYLINE
  8
CAPA_1
 62
7
 70
1
 66
1
  0
VERTEX
  8
CAPA_1
 62
7
 10
3.048111
 20
7.905007
 42
-0.236081
  0
VERTEX
  8
CAPA_1
 62
7
 10
2.983960
 20
7.928664
 42
-0.163543
  0
VERTEX
  8
CAPA_1
 62
7
 10
2.952123
 20
7.991194
 42
-0.245284
  0
VERTEX
  8
CAPA_1
 62
7
 10
2.980983
 20
8.053608
  0
VERTEX
  8
CAPA_1
 62
7
 10
3.007773
 20
8.073635
 42
0.044323
  0
VERTEX
  8
CAPA_1
 62
7
 10
3.014374
 20
8.078566
 42
-0.074818
  0
VERTEX
  8
CAPA_1
 62
7
 10
3.027870
 20
8.088479
 42
-0.131138
  0
VERTEX
  8
CAPA_1
 62
7
 10
3.035767
 20
8.089701
 42
-0.145807
  0
VERTEX
  8
CAPA_1
 62
7
 10
3.043195
 20
8.086511
 42
-0.073865
  0
VERTEX
  8
CAPA_1
 62
7
 10
3.048727
 20
8.080176
 42
0.028604
  0
VERTEX
  8
CAPA_1
 62
7
 10
3.058231
 20
8.065659
  0
VERTEX
  8
CAPA_1
 62
7
 10
3.077905
 20
8.038982
  0
VERTEX
  8
CAPA_1
 62
7
 10
3.115546
 20
7.986709
 42
0.035233
  0
VERTEX
  8
CAPA_1
 62
7
 10
3.121046
 20
7.979739
  0
VERTEX
  8
CAPA_1
 62
7
 10
3.127050
 20
7.972703
 42
-0.072894
  0
VERTEX
  8
CAPA_1
 62
7
 10
3.131439
 20
7.965398
 42
-0.154442
  0
VERTEX
  8
CAPA_1
 62
7
 10
3.132097
 20
7.957619
 42
-0.125047
  0
VERTEX
  8
CAPA_1
 62
7
 10
3.128466
 20
7.950878
 42
-0.062336
  0
VERTEX
  8
CAPA_1
 62
7
 10
3.122209
 20
7.945593
  0
VERTEX
  8
CAPA_1
 62
7
 10
3.107686
 20
7.936330
  0
VERTEX
  8
CAPA_1
 62
7
 10
3.080020
 20
7.916779
 42
-0.098964
  0
VERTEX
  8
CAPA_1
 62
7
 10
3.048111
 20
7.905007
  0
VERTEX
  8
CAPA_1
 62
7
 10
3.048111
 20
7.905007
  0
SEQEND
  0
POLYLINE
  8
CAPA_1
 62
7
 70
1
 66
1
  0
VERTEX
  8
CAPA_1
 62
7
 10
4.112597
 20
7.979062
 42
-0.184022
  0
VERTEX
  8
CAPA_1
 62
7
 10
4.080092
 20
8.020187
 42
-0.220308
  0
VERTEX
  8
CAPA_1
 62
7
 10
4.086397
 20
8.070614
  0
VERTEX
  8
CAPA_1
 62
7
 10
4.111118
 20
8.115638
 42
-0.026673
  0
VERTEX
  8
CAPA_1
 62
7
 10
4.136375
 20
8.160635
 42
-0.121609
  0
VERTEX
  8
CAPA_1
 62
7
 10
4.156900
 20
8.154372
 42
-0.125122
  0
VERTEX
  8
CAPA_1
 62
7
 10
4.164316
 20
8.147369
 42
-0.255286
  0
VERTEX
  8
CAPA_1
 62
7
 10
4.164653
 20
8.138474
 42
0.010945
  0
VERTEX
  8
CAPA_1
 62
7
 10
4.143900
 20
8.099958
 42
-0.039689
  0
VERTEX
  8
CAPA_1
 62
7
 10
4.133314
 20
8.080024
  0
VERTEX
  8
CAPA_1
 62
7
 10
4.121499
 20
8.060077
 42
0.075351
  0
VERTEX
  8
CAPA_1
 62
7
 10
4.113739
 20
8.039391
 42
0.133194
  0
VERTEX
  8
CAPA_1
 62
7
 10
4.115319
 20
8.017240
  0
VERTEX
  8
CAPA_1
 62
7
 10
4.127054
 20
8.007709
 42
0.075188
  0
VERTEX
  8
CAPA_1
 62
7
 10
4.138344
 20
8.001296
 42
0.307385
  0
VERTEX
  8
CAPA_1
 62
7
 10
4.172197
 20
8.013874
 42
0.048408
  0
VERTEX
  8
CAPA_1
 62
7
 10
4.182367
 20
8.030021
  0
VERTEX
  8
CAPA_1
 62
7
 10
4.191129
 20
8.046790
  0
VERTEX
  8
CAPA_1
 62
7
 10
4.226386
 20
8.111696
 42
-0.151865
  0
VERTEX
  8
CAPA_1
 62
7
 10
4.242623
 20
8.108254
 42
-0.036006
  0
VERTEX
  8
CAPA_1
 62
7
 10
4.249722
 20
8.103737
  0
VERTEX
  8
CAPA_1
 62
7
 10
4.256713
 20
8.098368
 42
-0.260404
  0
VERTEX
  8
CAPA_1
 62
7
 10
4.257944
 20
8.095963
 42
-0.096879
  0
VERTEX
  8
CAPA_1
 62
7
 10
4.257006
 20
8.093062
  0
VERTEX
  8
CAPA_1
 62
7
 10
4.207596
 20
7.999365
 42
-0.247810
  0
VERTEX
  8
CAPA_1
 62
7
 10
4.165963
 20
7.968646
 42
-0.178391
  0
VERTEX
  8
CAPA_1
 62
7
 10
4.112597
 20
7.979062
  0
VERTEX
  8
CAPA_1
 62
7
 10
4.112597
 20
7.979062
  0
SEQEND
  0
POLYLINE
  8
CAPA_1
 62
7
 70
1
 66
1
  0
VERTEX
  8
CAPA_1
 62
7
 10
3.152979
 20
7.967222
  0
VERTEX
  8
CAPA_1
 62
7
 10
3.151923
 20
7.971151
 42
0.085614
  0
VERTEX
  8
CAPA_1
 62
7
 10
3.151148
 20
7.972763
 42
0.043818
  0
VERTEX
  8
CAPA_1
 62
7
 10
3.150746
 20
7.973184
 42
-0.072806
  0
VERTEX
  8
CAPA_1
 62
7
 10
3.148904
 20
7.975227
 42
-0.047343
  0
VERTEX
  8
CAPA_1
 62
7
 10
3.143796
 20
7.984552
 42
-0.157040
  0
VERTEX
  8
CAPA_1
 62
7
 10
3.142964
 20
7.995818
 42
0.036876
  0
VERTEX
  8
CAPA_1
 62
7
 10
3.163387
 20
8.005844
  0
VERTEX
  8
CAPA_1
 62
7
 10
3.184219
 20
8.016273
 42
0.189139
  0
VERTEX
  8
CAPA_1
 62
7
 10
3.188322
 20
8.019612
 42
0.181102
  0
VERTEX
  8
CAPA_1
 62
7
 10
3.188532
 20
8.024099
 42
0.064261
  0
VERTEX
  8
CAPA_1
 62
7
 10
3.186221
 20
8.029323
  0
VERTEX
  8
CAPA_1
 62
7
 10
3.182760
 20
8.034872
  0
VERTEX
  8
CAPA_1
 62
7
 10
3.171934
 20
8.055454
  0
VERTEX
  8
CAPA_1
 62
7
 10
3.126858
 20
8.142039
 42
-0.067761
  0
VERTEX
  8
CAPA_1
 62
7
 10
3.134999
 20
8.149380
  0
VERTEX
  8
CAPA_1
 62
7
 10
3.143199
 20
8.154708
 42
0.077635
  0
VERTEX
  8
CAPA_1
 62
7
 10
3.147278
 20
8.155434
 42
-0.094247
  0
VERTEX
  8
CAPA_1
 62
7
 10
3.159477
 20
8.158560
 42
-0.011460
  0
VERTEX
  8
CAPA_1
 62
7
 10
3.234735
 20
8.010753
 42
-0.037881
  0
VERTEX
  8
CAPA_1
 62
7
 10
3.152979
 20
7.967222
  0
VERTEX
  8
CAPA_1
 62
7
 10
3.152979
 20
7.967222
  0
SEQEND
  0
POLYLINE
  8
CAPA_1
 62
7
 70
1
 66
1
  0
VERTEX
  8
CAPA_1
 62
7
 10
3.286017
 20
8.102854
 42
0.019657
  0
VERTEX
  8
CAPA_1
 62
7
 10
3.283761
 20
8.173544
  0
VERTEX
  8
CAPA_1
 62
7
 10
3.323516
 20
8.123242
 42
-0.070207
  0
VERTEX
  8
CAPA_1
 62
7
 10
3.326473
 20
8.117014
  0
VERTEX
  8
CAPA_1
 62
7
 10
3.286017
 20
8.102854
  0
VERTEX
  8
CAPA_1
 62
7
 10
3.286017
 20
8.102854
  0
SEQEND
  0
POLYLINE
  8
CAPA_1
 62
7
 70
1
 66
1
  0
VERTEX
  8
CAPA_1
 62
7
 10
3.251869
 20
8.021725
 42
-0.009686
  0
VERTEX
  8
CAPA_1
 62
7
 10
3.249964
 20
8.197433
 42
-0.135690
  0
VERTEX
  8
CAPA_1
 62
7
 10
3.293094
 20
8.212571
  0
VERTEX
  8
CAPA_1
 62
7
 10
3.401398
 20
8.076325
 42
0.116354
  0
VERTEX
  8
CAPA_1
 62
7
 10
3.399343
 20
8.074919
 42
0.135397
  0
VERTEX
  8
CAPA_1
 62
7
 10
3.398750
 20
8.073536
 42
-0.044024
  0
VERTEX
  8
CAPA_1
 62
7
 10
3.398480
 20
8.072172
 42
-0.159355
  0
VERTEX
  8
CAPA_1
 62
7
 10
3.397394
 20
8.070824
 42
-0.070906
  0
VERTEX
  8
CAPA_1
 62
7
 10
3.385199
 20
8.065967
  0
VERTEX
  8
CAPA_1
 62
7
 10
3.372499
 20
8.061901
 42
-0.118831
  0
VERTEX
  8
CAPA_1
 62
7
 10
3.358278
 20
8.075465
  0
VERTEX
  8
CAPA_1
 62
7
 10
3.346056
 20
8.092059
 42
0.043773
  0
VERTEX
  8
CAPA_1
 62
7
 10
3.316580
 20
8.083165
  0
VERTEX
  8
CAPA_1
 62
7
 10
3.287449
 20
8.073036
  0
VERTEX
  8
CAPA_1
 62
7
 10
3.287081
 20
8.031846
 42
0.037139
  0
VERTEX
  8
CAPA_1
 62
7
 10
3.278370
 20
8.028632
 42
-0.122413
  0
VERTEX
  8
CAPA_1
 62
7
 10
3.251869
 20
8.021725
  0
VERTEX
  8
CAPA_1
 62
7
 10
3.251869
 20
8.021725
  0
SEQEND
  0
POLYLINE
  8
CAPA_1
 62
7
 70
1
 66
1
  0
VERTEX
  8
CAPA_1
 62
7
 10
3.996138
 20
8.038408
 42
-0.060660
  0
VERTEX
  8
CAPA_1
 62
7
 10
4.003217
 20
8.067145
  0
VERTEX
  8
CAPA_1
 62
7
 10
4.012682
 20
8.094804
  0
VERTEX
  8
CAPA_1
 62
7
 10
4.022377
 20
8.124237
 42
0.038285
  0
VERTEX
  8
CAPA_1
 62
7
 10
4.031026
 20
8.151408
 42
0.099989
  0
VERTEX
  8
CAPA_1
 62
7
 10
4.030969
 20
8.151917
 42
0.225922
  0
VERTEX
  8
CAPA_1
 62
7
 10
4.030752
 20
8.152151
 42
0.158104
  0
VERTEX
  8
CAPA_1
 62
7
 10
4.030392
 20
8.152141
 42
0.062706
  0
VERTEX
  8
CAPA_1
 62
7
 10
4.029909
 20
8.151917
 42
0.054026
  0
VERTEX
  8
CAPA_1
 62
7
 10
4.027119
 20
8.149484
 42
-0.014739
  0
VERTEX
  8
CAPA_1
 62
7
 10
4.021323
 20
8.143521
 42
-0.002852
  0
VERTEX
  8
CAPA_1
 62
7
 10
4.012204
 20
8.134415
 42
-0.016191
  0
VERTEX
  8
CAPA_1
 62
7
 10
3.993640
 20
8.116151
 42
0.041945
  0
VERTEX
  8
CAPA_1
 62
7
 10
3.974021
 20
8.098005
  0
VERTEX
  8
CAPA_1
 62
7
 10
3.954426
 20
8.079510
 42
0.037109
  0
VERTEX
  8
CAPA_1
 62
7
 10
3.949170
 20
8.074657
  0
VERTEX
  8
CAPA_1
 62
7
 10
3.944135
 20
8.069434
 42
-0.158759
  0
VERTEX
  8
CAPA_1
 62
7
 10
3.932156
 20
8.062469
 42
-0.109588
  0
VERTEX
  8
CAPA_1
 62
7
 10
3.916638
 20
8.063438
 42
-0.042293
  0
VERTEX
  8
CAPA_1
 62
7
 10
3.901609
 20
8.069383
 42
-0.177427
  0
VERTEX
  8
CAPA_1
 62
7
 10
3.896518
 20
8.074237
 42
-0.122228
  0
VERTEX
  8
CAPA_1
 62
7
 10
3.895294
 20
8.081038
 42
-0.080388
  0
VERTEX
  8
CAPA_1
 62
7
 10
3.899007
 20
8.095729
  0
VERTEX
  8
CAPA_1
 62
7
 10
3.908315
 20
8.123451
  0
VERTEX
  8
CAPA_1
 62
7
 10
3.927286
 20
8.180181
  0
VERTEX
  8
CAPA_1
 62
7
 10
3.937144
 20
8.209475
 42
-0.017527
  0
VERTEX
  8
CAPA_1
 62
7
 10
3.941801
 20
8.224308
 42
-0.123064
  0
VERTEX
  8
CAPA_1
 62
7
 10
3.945708
 20
8.229853
 42
-0.218921
  0
VERTEX
  8
CAPA_1
 62
7
 10
3.952088
 20
8.231301
 42
-0.088420
  0
VERTEX
  8
CAPA_1
 62
7
 10
3.967874
 20
8.226279
 42
-0.134849
  0
VERTEX
  8
CAPA_1
 62
7
 10
3.972831
 20
8.221481
 42
-0.201542
  0
VERTEX
  8
CAPA_1
 62
7
 10
3.973402
 20
8.214709
  0
VERTEX
  8
CAPA_1
 62
7
 10
3.964006
 20
8.186601
  0
VERTEX
  8
CAPA_1
 62
7
 10
3.945321
 20
8.129958
  0
VERTEX
  8
CAPA_1
 62
7
 10
3.941597
 20
8.119715
 42
0.066393
  0
VERTEX
  8
CAPA_1
 62
7
 10
3.941426
 20
8.118328
 42
0.081453
  0
VERTEX
  8
CAPA_1
 62
7
 10
3.941520
 20
8.117844
 42
0.141937
  0
VERTEX
  8
CAPA_1
 62
7
 10
3.941754
 20
8.117526
 42
0.144151
  0
VERTEX
  8
CAPA_1
 62
7
 10
3.942146
 20
8.117392
 42
0.083941
  0
VERTEX
  8
CAPA_1
 62
7
 10
3.942712
 20
8.117464
 42
0.108773
  0
VERTEX
  8
CAPA_1
 62
7
 10
3.944869
 20
8.118802
 42
-0.019067
  0
VERTEX
  8
CAPA_1
 62
7
 10
3.952045
 20
8.126401
 42
-0.014980
  0
VERTEX
  8
CAPA_1
 62
7
 10
3.970730
 20
8.144357
  0
VERTEX
  8
CAPA_1
 62
7
 10
3.990480
 20
8.162827
 42
-0.041418
  0
VERTEX
  8
CAPA_1
 62
7
 10
4.010392
 20
8.181290
 42
0.038549
  0
VERTEX
  8
CAPA_1
 62
7
 10
4.015501
 20
8.185805
 42
-0.065174
  0
VERTEX
  8
CAPA_1
 62
7
 10
4.031087
 20
8.199567
 42
-0.125081
  0
VERTEX
  8
CAPA_1
 62
7
 10
4.038387
 20
8.201203
 42
-0.068472
  0
VERTEX
  8
CAPA_1
 62
7
 10
4.045628
 20
8.199878
 42
0.046258
  0
VERTEX
  8
CAPA_1
 62
7
 10
4.060709
 20
8.195588
 42
-0.242198
  0
VERTEX
  8
CAPA_1
 62
7
 10
4.072828
 20
8.187473
 42
-0.237454
  0
VERTEX
  8
CAPA_1
 62
7
 10
4.073578
 20
8.172520
  0
VERTEX
  8
CAPA_1
 62
7
 10
4.064014
 20
8.144577
  0
VERTEX
  8
CAPA_1
 62
7
 10
4.025884
 20
8.030702
 42
-0.194395
  0
VERTEX
  8
CAPA_1
 62
7
 10
3.996138
 20
8.038408
  0
VERTEX
  8
CAPA_1
 62
7
 10
3.996138
 20
8.038408
  0
SEQEND
  0
POLYLINE
  8
CAPA_1
 62
7
 70
1
 66
1
  0
VERTEX
  8
CAPA_1
 62
7
 10
3.799004
 20
8.156631
 42
0.012785
  0
VERTEX
  8
CAPA_1
 62
7
 10
3.790485
 20
8.157496
 42
-0.098000
  0
VERTEX
  8
CAPA_1
 62
7
 10
3.787149
 20
8.158466
 42
-0.143192
  0
VERTEX
  8
CAPA_1
 62
7
 10
3.786274
 20
8.159377
 42
-0.164942
  0
VERTEX
  8
CAPA_1
 62
7
 10
3.786141
 20
8.160684
 42
-0.082476
  0
VERTEX
  8
CAPA_1
 62
7
 10
3.788706
 20
8.166559
  0
VERTEX
  8
CAPA_1
 62
7
 10
3.792413
 20
8.172632
  0
VERTEX
  8
CAPA_1
 62
7
 10
3.817482
 20
8.221741
  0
VERTEX
  8
CAPA_1
 62
7
 10
3.829363
 20
8.151530
  0
VERTEX
  8
CAPA_1
 62
7
 10
3.799004
 20
8.156631
  0
VERTEX
  8
CAPA_1
 62
7
 10
3.799004
 20
8.156631
  0
SEQEND
  0
POLYLINE
  8
CAPA_1
 62
7
 70
1
 66
1
  0
VERTEX
  8
CAPA_1
 62
7
 10
3.839479
 20
8.083697
  0
VERTEX
  8
CAPA_1
 62
7
 10
3.832684
 20
8.122982
  0
VERTEX
  8
CAPA_1
 62
7
 10
3.780105
 20
8.130746
 42
0.035108
  0
VERTEX
  8
CAPA_1
 62
7
 10
3.773949
 20
8.131557
 42
0.165125
  0
VERTEX
  8
CAPA_1
 62
7
 10
3.771674
 20
8.130786
 42
0.162860
  0
VERTEX
  8
CAPA_1
 62
7
 10
3.770235
 20
8.128199
 42
-0.064460
  0
VERTEX
  8
CAPA_1
 62
7
 10
3.768044
 20
8.122705
  0
VERTEX
  8
CAPA_1
 62
7
 10
3.765324
 20
8.117916
 42
0.044093
  0
VERTEX
  8
CAPA_1
 62
7
 10
3.754733
 20
8.097598
 42
-0.117577
  0
VERTEX
  8
CAPA_1
 62
7
 10
3.718720
 20
8.102566
 42
-0.238631
  0
VERTEX
  8
CAPA_1
 62
7
 10
3.718701
 20
8.108243
 42
0.066173
  0
VERTEX
  8
CAPA_1
 62
7
 10
3.720680
 20
8.113254
  0
VERTEX
  8
CAPA_1
 62
7
 10
3.797327
 20
8.257723
 42
-0.115585
  0
VERTEX
  8
CAPA_1
 62
7
 10
3.807742
 20
8.260427
 42
-0.057410
  0
VERTEX
  8
CAPA_1
 62
7
 10
3.818838
 20
8.259391
 42
0.030687
  0
VERTEX
  8
CAPA_1
 62
7
 10
3.840454
 20
8.255197
 42
0.135076
  0
VERTEX
  8
CAPA_1
 62
7
 10
3.842152
 20
8.252606
 42
-0.077351
  0
VERTEX
  8
CAPA_1
 62
7
 10
3.843864
 20
8.251034
  0
VERTEX
  8
CAPA_1
 62
7
 10
3.874205
 20
8.079876
 42
-0.101346
  0
VERTEX
  8
CAPA_1
 62
7
 10
3.855711
 20
8.079485
  0
VERTEX
  8
CAPA_1
 62
7
 10
3.839479
 20
8.083697
  0
VERTEX
  8
CAPA_1
 62
7
 10
3.839479
 20
8.083697
  0
SEQEND
  0
POLYLINE
  8
CAPA_1
 62
7
 70
1
 66
1
  0
VERTEX
  8
CAPA_1
 62
7
 10
3.409315
 20
8.085029
  0
VERTEX
  8
CAPA_1
 62
7
 10
3.406135
 20
8.092487
 42
-0.086993
  0
VERTEX
  8
CAPA_1
 62
7
 10
3.404339
 20
8.100326
 42
0.065908
  0
VERTEX
  8
CAPA_1
 62
7
 10
3.403533
 20
8.104415
  0
VERTEX
  8
CAPA_1
 62
7
 10
3.402596
 20
8.107848
 42
-0.113280
  0
VERTEX
  8
CAPA_1
 62
7
 10
3.402959
 20
8.112027
 42
-0.066864
  0
VERTEX
  8
CAPA_1
 62
7
 10
3.406054
 20
8.118354
 42
0.233258
  0
VERTEX
  8
CAPA_1
 62
7
 10
3.450037
 20
8.110550
 42
0.302085
  0
VERTEX
  8
CAPA_1
 62
7
 10
3.480230
 20
8.140545
 42
0.128767
  0
VERTEX
  8
CAPA_1
 62
7
 10
3.475967
 20
8.187923
 42
0.192501
  0
VERTEX
  8
CAPA_1
 62
7
 10
3.446061
 20
8.221945
 42
0.260351
  0
VERTEX
  8
CAPA_1
 62
7
 10
3.394355
 20
8.200701
 42
-0.187425
  0
VERTEX
  8
CAPA_1
 62
7
 10
3.392260
 20
8.199597
 42
-0.225036
  0
VERTEX
  8
CAPA_1
 62
7
 10
3.390153
 20
8.200403
 42
-0.236755
  0
VERTEX
  8
CAPA_1
 62
7
 10
3.382885
 20
8.222340
 42
-0.232760
  0
VERTEX
  8
CAPA_1
 62
7
 10
3.395722
 20
8.241681
 42
-0.138081
  0
VERTEX
  8
CAPA_1
 62
7
 10
3.445796
 20
8.253665
 42
-0.183709
  0
VERTEX
  8
CAPA_1
 62
7
 10
3.488418
 20
8.236620
 42
-0.133759
  0
VERTEX
  8
CAPA_1
 62
7
 10
3.513208
 20
8.198397
 42
-0.089820
  0
VERTEX
  8
CAPA_1
 62
7
 10
3.520422
 20
8.147510
 42
-0.182383
  0
VERTEX
  8
CAPA_1
 62
7
 10
3.501797
 20
8.101237
 42
-0.289266
  0
VERTEX
  8
CAPA_1
 62
7
 10
3.409315
 20
8.085029
  0
VERTEX
  8
CAPA_1
 62
7
 10
3.409315
 20
8.085029
  0
SEQEND
  0
POLYLINE
  8
CAPA_1
 62
7
 70
1
 66
1
  0
VERTEX
  8
CAPA_1
 62
7
 10
3.608831
 20
8.101161
 42
0.070650
  0
VERTEX
  8
CAPA_1
 62
7
 10
3.607208
 20
8.103510
 42
0.079408
  0
VERTEX
  8
CAPA_1
 62
7
 10
3.604838
 20
8.105123
 42
-0.039677
  0
VERTEX
  8
CAPA_1
 62
7
 10
3.605610
 20
8.130223
  0
VERTEX
  8
CAPA_1
 62
7
 10
3.662512
 20
8.130967
 42
-0.004431
  0
VERTEX
  8
CAPA_1
 62
7
 10
3.664355
 20
8.268942
 42
-0.102073
  0
VERTEX
  8
CAPA_1
 62
7
 10
3.681696
 20
8.272002
 42
-0.054091
  0
VERTEX
  8
CAPA_1
 62
7
 10
3.699180
 20
8.269114
  0
VERTEX
  8
CAPA_1
 62
7
 10
3.699570
 20
8.186756
  0
VERTEX
  8
CAPA_1
 62
7
 10
3.696985
 20
8.105425
 42
-0.103055
  0
VERTEX
  8
CAPA_1
 62
7
 10
3.696271
 20
8.104312
 42
0.109346
  0
VERTEX
  8
CAPA_1
 62
7
 10
3.693626
 20
8.101156
  0
VERTEX
  8
CAPA_1
 62
7
 10
3.608831
 20
8.101161
  0
VERTEX
  8
CAPA_1
 62
7
 10
3.608831
 20
8.101161
  0
SEQEND
  0
POLYLINE
  8
CAPA_1
 62
7
 70
1
 66
1
  0
VERTEX
  8
CAPA_1
 62
7
 10
4.698884
 20
6.108722
 42
-0.099279
  0
VERTEX
  8
CAPA_1
 62
7
 10
4.699822
 20
6.110190
 42
-0.157105
  0
VERTEX
  8
CAPA_1
 62
7
 10
4.700939
 20
6.110789
 42
-0.159377
  0
VERTEX
  8
CAPA_1
 62
7
 10
4.702113
 20
6.110584
 42
-0.105932
  0
VERTEX
  8
CAPA_1
 62
7
 10
4.703227
 20
6.109641
 42
0.235182
  0
VERTEX
  8
CAPA_1
 62
7
 10
4.734362
 20
6.095035
 42
0.314727
  0
VERTEX
  8
CAPA_1
 62
7
 10
4.761000
 20
6.115210
 42
0.143818
  0
VERTEX
  8
CAPA_1
 62
7
 10
4.761492
 20
6.201260
 42
0.297496
  0
VERTEX
  8
CAPA_1
 62
7
 10
4.735898
 20
6.223274
 42
0.298335
  0
VERTEX
  8
CAPA_1
 62
7
 10
4.703089
 20
6.207065
 42
-0.212817
  0
VERTEX
  8
CAPA_1
 62
7
 10
4.702287
 20
6.206467
 42
-0.171949
  0
VERTEX
  8
CAPA_1
 62
7
 10
4.701330
 20
6.206674
 42
-0.112151
  0
VERTEX
  8
CAPA_1
 62
7
 10
4.699341
 20
6.208732
 42
-0.066909
  0
VERTEX
  8
CAPA_1
 62
7
 10
4.697888
 20
6.211686
 42
-0.057583
  0
VERTEX
  8
CAPA_1
 62
7
 10
4.697604
 20
6.213015
 42
-0.136438
  0
VERTEX
  8
CAPA_1
 62
7
 10
4.697742
 20
6.213985
 42
0.165552
  0
VERTEX
  8
CAPA_1
 62
7
 10
4.698031
 20
6.217435
 42
-0.024149
  0
VERTEX
  8
CAPA_1
 62
7
 10
4.695961
 20
6.225900
 42
-0.166832
  0
VERTEX
  8
CAPA_1
 62
7
 10
4.696791
 20
6.229796
 42
0.110791
  0
VERTEX
  8
CAPA_1
 62
7
 10
4.698042
 20
6.233628
 42
-0.026306
  0
VERTEX
  8
CAPA_1
 62
7
 10
4.698691
 20
6.241727
 42
-0.193593
  0
VERTEX
  8
CAPA_1
 62
7
 10
4.700493
 20
6.244428
 42
-0.250659
  0
VERTEX
  8
CAPA_1
 62
7
 10
4.741518
 20
6.258845
 42
-0.206754
  0
VERTEX
  8
CAPA_1
 62
7
 10
4.779246
 20
6.236932
 42
-0.117007
  0
VERTEX
  8
CAPA_1
 62
7
 10
4.796464
 20
6.190992
 42
-0.046251
  0
VERTEX
  8
CAPA_1
 62
7
 10
4.798451
 20
6.139604
 42
-0.097449
  0
VERTEX
  8
CAPA_1
 62
7
 10
4.788991
 20
6.095003
 42
-0.183728
  0
VERTEX
  8
CAPA_1
 62
7
 10
4.759049
 20
6.063791
 42
-0.236319
  0
VERTEX
  8
CAPA_1
 62
7
 10
4.711332
 20
6.066139
 42
-0.177199
  0
VERTEX
  8
CAPA_1
 62
7
 10
4.696976
 20
6.082989
 42
-0.188797
  0
VERTEX
  8
CAPA_1
 62
7
 10
4.698884
 20
6.108722
  0
VERTEX
  8
CAPA_1
 62
7
 10
4.698884
 20
6.108722
  0
SEQEND
  0
POLYLINE
  8
CAPA_1
 62
7
 70
1
 66
1
  0
VERTEX
  8
CAPA_1
 62
7
 10
4.629060
 20
6.093012
 42
0.059583
  0
VERTEX
  8
CAPA_1
 62
7
 10
4.620079
 20
6.093797
  0
VERTEX
  8
CAPA_1
 62
7
 10
4.612199
 20
6.093507
 42
-0.235141
  0
VERTEX
  8
CAPA_1
 62
7
 10
4.588693
 20
6.124089
 42
-0.046767
  0
VERTEX
  8
CAPA_1
 62
7
 10
4.585643
 20
6.144514
  0
VERTEX
  8
CAPA_1
 62
7
 10
4.585064
 20
6.164880
 42
-0.110164
  0
VERTEX
  8
CAPA_1
 62
7
 10
4.592503
 20
6.206924
 42
-0.145909
  0
VERTEX
  8
CAPA_1
 62
7
 10
4.605327
 20
6.221680
 42
-0.169313
  0
VERTEX
  8
CAPA_1
 62
7
 10
4.627110
 20
6.225616
 42
-0.139415
  0
VERTEX
  8
CAPA_1
 62
7
 10
4.648538
 20
6.203998
 42
-0.058020
  0
VERTEX
  8
CAPA_1
 62
7
 10
4.654093
 20
6.143863
 42
-0.089334
  0
VERTEX
  8
CAPA_1
 62
7
 10
4.647605
 20
6.114634
 42
-0.153606
  0
VERTEX
  8
CAPA_1
 62
7
 10
4.629060
 20
6.093012
  0
VERTEX
  8
CAPA_1
 62
7
 10
4.629060
 20
6.093012
  0
SEQEND
  0
POLYLINE
  8
CAPA_1
 62
7
 70
1
 66
1
  0
VERTEX
  8
CAPA_1
 62
7
 10
4.636959
 20
6.061058
 42
-0.309449
  0
VERTEX
  8
CAPA_1
 62
7
 10
4.576627
 20
6.080334
 42
-0.173172
  0
VERTEX
  8
CAPA_1
 62
7
 10
4.554559
 20
6.142623
 42
-0.057696
  0
VERTEX
  8
CAPA_1
 62
7
 10
4.559438
 20
6.211387
 42
-0.292599
  0
VERTEX
  8
CAPA_1
 62
7
 10
4.602068
 20
6.258035
 42
-0.303466
  0
VERTEX
  8
CAPA_1
 62
7
 10
4.662140
 20
6.238989
 42
-0.173918
  0
VERTEX
  8
CAPA_1
 62
7
 10
4.684678
 20
6.177210
 42
-0.060653
  0
VERTEX
  8
CAPA_1
 62
7
 10
4.679913
 20
6.108050
 42
-0.289271
  0
VERTEX
  8
CAPA_1
 62
7
 10
4.636959
 20
6.061058
  0
VERTEX
  8
CAPA_1
 62
7
 10
4.636959
 20
6.061058
  0
SEQEND
  0
POLYLINE
  8
CAPA_1
 62
7
 70
1
 66
1
  0
VERTEX
  8
CAPA_1
 62
7
 10
4.256029
 20
6.061221
 42
-0.058630
  0
VERTEX
  8
CAPA_1
 62
7
 10
4.237015
 20
6.066436
 42
-0.098284
  0
VERTEX
  8
CAPA_1
 62
7
 10
4.229304
 20
6.071725
 42
-0.162657
  0
VERTEX
  8
CAPA_1
 62
7
 10
4.225505
 20
6.079892
  0
VERTEX
  8
CAPA_1
 62
7
 10
4.225106
 20
6.129823
  0
VERTEX
  8
CAPA_1
 62
7
 10
4.224281
 20
6.152873
 42
-0.172317
  0
VERTEX
  8
CAPA_1
 62
7
 10
4.230263
 20
6.173416
  0
VERTEX
  8
CAPA_1
 62
7
 10
4.281989
 20
6.173404
 42
-0.161061
  0
VERTEX
  8
CAPA_1
 62
7
 10
4.281992
 20
6.142123
  0
VERTEX
  8
CAPA_1
 62
7
 10
4.254739
 20
6.142043
  0
VERTEX
  8
CAPA_1
 62
7
 10
4.253528
 20
6.096870
 42
0.277913
  0
VERTEX
  8
CAPA_1
 62
7
 10
4.294681
 20
6.104638
 42
0.168079
  0
VERTEX
  8
CAPA_1
 62
7
 10
4.312460
 20
6.143369
 42
0.111350
  0
VERTEX
  8
CAPA_1
 62
7
 10
4.308635
 20
6.190192
 42
0.194126
  0
VERTEX
  8
CAPA_1
 62
7
 10
4.284976
 20
6.222236
 42
0.144783
  0
VERTEX
  8
CAPA_1
 62
7
 10
4.266098
 20
6.225598
 42
0.043283
  0
VERTEX
  8
CAPA_1
 62
7
 10
4.257762
 20
6.223838
  0
VERTEX
  8
CAPA_1
 62
7
 10
4.249573
 20
6.221166
 42
0.047357
  0
VERTEX
  8
CAPA_1
 62
7
 10
4.244142
 20
6.218151
 42
-0.058922
  0
VERTEX
  8
CAPA_1
 62
7
 10
4.227919
 20
6.208400
 42
-0.167200
  0
VERTEX
  8
CAPA_1
 62
7
 10
4.224808
 20
6.216082
  0
VERTEX
  8
CAPA_1
 62
7
 10
4.224765
 20
6.224581
  0
VERTEX
  8
CAPA_1
 62
7
 10
4.224911
 20
6.234700
 42
-0.094176
  0
VERTEX
  8
CAPA_1
 62
7
 10
4.227690
 20
6.244300
 42
-0.272626
  0
VERTEX
  8
CAPA_1
 62
7
 10
4.297340
 20
6.254305
 42
-0.225158
  0
VERTEX
  8
CAPA_1
 62
7
 10
4.337503
 20
6.201872
 42
-0.104897
  0
VERTEX
  8
CAPA_1
 62
7
 10
4.340757
 20
6.125100
 42
-0.228931
  0
VERTEX
  8
CAPA_1
 62
7
 10
4.300105
 20
6.064167
 42
-0.119213
  0
VERTEX
  8
CAPA_1
 62
7
 10
4.256029
 20
6.061221
  0
VERTEX
  8
CAPA_1
 62
7
 10
4.256029
 20
6.061221
  0
SEQEND
  0
POLYLINE
  8
CAPA_1
 62
7
 70
1
 66
1
  0
VERTEX
  8
CAPA_1
 62
7
 10
4.073744
 20
6.093898
 42
-0.222034
  0
VERTEX
  8
CAPA_1
 62
7
 10
4.051997
 20
6.121061
 42
-0.071354
  0
VERTEX
  8
CAPA_1
 62
7
 10
4.047740
 20
6.157812
 42
-0.062863
  0
VERTEX
  8
CAPA_1
 62
7
 10
4.051010
 20
6.196723
 42
-0.241953
  0
VERTEX
  8
CAPA_1
 62
7
 10
4.073578
 20
6.225473
 42
-0.298358
  0
VERTEX
  8
CAPA_1
 62
7
 10
4.103853
 20
6.213491
 42
-0.138164
  0
VERTEX
  8
CAPA_1
 62
7
 10
4.115224
 20
6.181557
 42
-0.039719
  0
VERTEX
  8
CAPA_1
 62
7
 10
4.115818
 20
6.143131
 42
-0.095158
  0
VERTEX
  8
CAPA_1
 62
7
 10
4.106884
 20
6.106938
 42
-0.164830
  0
VERTEX
  8
CAPA_1
 62
7
 10
4.092330
 20
6.095155
 42
-0.125270
  0
VERTEX
  8
CAPA_1
 62
7
 10
4.073744
 20
6.093898
  0
VERTEX
  8
CAPA_1
 62
7
 10
4.073744
 20
6.093898
  0
SEQEND
  0
POLYLINE
  8
CAPA_1
 62
7
 70
1
 66
1
  0
VERTEX
  8
CAPA_1
 62
7
 10
4.020819
 20
6.116886
 42
-0.047254
  0
VERTEX
  8
CAPA_1
 62
7
 10
4.016820
 20
6.182882
 42
-0.163736
  0
VERTEX
  8
CAPA_1
 62
7
 10
4.038418
 20
6.242540
 42
-0.275149
  0
VERTEX
  8
CAPA_1
 62
7
 10
4.092248
 20
6.258134
 42
-0.254680
  0
VERTEX
  8
CAPA_1
 62
7
 10
4.136198
 20
6.223455
 42
-0.162864
  0
VERTEX
  8
CAPA_1
 62
7
 10
4.137130
 20
6.092378
  0
VERTEX
  8
CAPA_1
 62
7
 10
4.126304
 20
6.076165
 42
-0.072006
  0
VERTEX
  8
CAPA_1
 62
7
 10
4.118793
 20
6.069217
 42
-0.039694
  0
VERTEX
  8
CAPA_1
 62
7
 10
4.114846
 20
6.066835
 42
-0.038264
  0
VERTEX
  8
CAPA_1
 62
7
 10
4.113218
 20
6.066179
 42
-0.083773
  0
VERTEX
  8
CAPA_1
 62
7
 10
4.111972
 20
6.065980
 42
-0.273343
  0
VERTEX
  8
CAPA_1
 62
7
 10
4.052099
 20
6.068214
 42
-0.221062
  0
VERTEX
  8
CAPA_1
 62
7
 10
4.020819
 20
6.116886
  0
VERTEX
  8
CAPA_1
 62
7
 10
4.020819
 20
6.116886
  0
SEQEND
  0
POLYLINE
  8
CAPA_1
 62
7
 70
1
 66
1
  0
VERTEX
  8
CAPA_1
 62
7
 10
3.369489
 20
6.093347
 42
0.046160
  0
VERTEX
  8
CAPA_1
 62
7
 10
3.365593
 20
6.093746
 42
-0.030817
  0
VERTEX
  8
CAPA_1
 62
7
 10
3.353580
 20
6.094059
 42
-0.131178
  0
VERTEX
  8
CAPA_1
 62
7
 10
3.340895
 20
6.102237
 42
-0.074882
  0
VERTEX
  8
CAPA_1
 62
7
 10
3.332235
 20
6.114964
 42
-0.139497
  0
VERTEX
  8
CAPA_1
 62
7
 10
3.332213
 20
6.205973
 42
-0.178998
  0
VERTEX
  8
CAPA_1
 62
7
 10
3.346222
 20
6.222061
 42
-0.161661
  0
VERTEX
  8
CAPA_1
 62
7
 10
3.367733
 20
6.225530
 42
-0.214324
  0
VERTEX
  8
CAPA_1
 62
7
 10
3.390317
 20
6.198563
 42
-0.080313
  0
VERTEX
  8
CAPA_1
 62
7
 10
3.394841
 20
6.161443
 42
-0.058567
  0
VERTEX
  8
CAPA_1
 62
7
 10
3.391566
 20
6.122396
 42
-0.232144
  0
VERTEX
  8
CAPA_1
 62
7
 10
3.369489
 20
6.093347
  0
VERTEX
  8
CAPA_1
 62
7
 10
3.369489
 20
6.093347
  0
SEQEND
  0
POLYLINE
  8
CAPA_1
 62
7
 70
1
 66
1
  0
VERTEX
  8
CAPA_1
 62
7
 10
3.362621
 20
6.058868
 42
-0.264637
  0
VERTEX
  8
CAPA_1
 62
7
 10
3.311852
 20
6.086925
 42
-0.134231
  0
VERTEX
  8
CAPA_1
 62
7
 10
3.295458
 20
6.144548
 42
-0.062806
  0
VERTEX
  8
CAPA_1
 62
7
 10
3.299077
 20
6.206599
 42
-0.217371
  0
VERTEX
  8
CAPA_1
 62
7
 10
3.332631
 20
6.255165
 42
-0.155284
  0
VERTEX
  8
CAPA_1
 62
7
 10
3.384639
 20
6.255152
 42
-0.202936
  0
VERTEX
  8
CAPA_1
 62
7
 10
3.419885
 20
6.207815
 42
-0.068669
  0
VERTEX
  8
CAPA_1
 62
7
 10
3.426052
 20
6.147043
 42
-0.127471
  0
VERTEX
  8
CAPA_1
 62
7
 10
3.412101
 20
6.087764
 42
-0.285473
  0
VERTEX
  8
CAPA_1
 62
7
 10
3.362621
 20
6.058868
  0
VERTEX
  8
CAPA_1
 62
7
 10
3.362621
 20
6.058868
  0
SEQEND
  0
POLYLINE
  8
CAPA_1
 62
7
 70
1
 66
1
  0
VERTEX
  8
CAPA_1
 62
7
 10
3.011499
 20
6.066462
 42
-0.173681
  0
VERTEX
  8
CAPA_1
 62
7
 10
2.991666
 20
6.091267
 42
-0.092054
  0
VERTEX
  8
CAPA_1
 62
7
 10
2.986361
 20
6.124223
 42
-0.272798
  0
VERTEX
  8
CAPA_1
 62
7
 10
3.017237
 20
6.176110
 42
0.135060
  0
VERTEX
  8
CAPA_1
 62
7
 10
3.041587
 20
6.196573
 42
0.155974
  0
VERTEX
  8
CAPA_1
 62
7
 10
3.045254
 20
6.210291
 42
0.168424
  0
VERTEX
  8
CAPA_1
 62
7
 10
3.038337
 20
6.225167
 42
0.238866
  0
VERTEX
  8
CAPA_1
 62
7
 10
3.016628
 20
6.224451
  0
VERTEX
  8
CAPA_1
 62
7
 10
2.997013
 20
6.213675
 42
-0.175261
  0
VERTEX
  8
CAPA_1
 62
7
 10
2.996536
 20
6.247620
 42
-0.164496
  0
VERTEX
  8
CAPA_1
 62
7
 10
3.020071
 20
6.258632
 42
-0.103918
  0
VERTEX
  8
CAPA_1
 62
7
 10
3.047202
 20
6.256623
 42
-0.072842
  0
VERTEX
  8
CAPA_1
 62
7
 10
3.060297
 20
6.247229
 42
-0.130993
  0
VERTEX
  8
CAPA_1
 62
7
 10
3.068767
 20
6.234221
 42
-0.198245
  0
VERTEX
  8
CAPA_1
 62
7
 10
3.072085
 20
6.181298
 42
-0.218012
  0
VERTEX
  8
CAPA_1
 62
7
 10
3.037285
 20
6.142823
 42
0.213178
  0
VERTEX
  8
CAPA_1
 62
7
 10
3.018937
 20
6.122621
 42
0.307638
  0
VERTEX
  8
CAPA_1
 62
7
 10
3.024746
 20
6.097694
 42
0.166995
  0
VERTEX
  8
CAPA_1
 62
7
 10
3.036513
 20
6.092449
 42
0.113095
  0
VERTEX
  8
CAPA_1
 62
7
 10
3.049024
 20
6.094540
 42
0.072070
  0
VERTEX
  8
CAPA_1
 62
7
 10
3.071886
 20
6.108822
 42
-0.158939
  0
VERTEX
  8
CAPA_1
 62
7
 10
3.077014
 20
6.101464
 42
-0.087212
  0
VERTEX
  8
CAPA_1
 62
7
 10
3.078097
 20
6.091977
 42
-0.038704
  0
VERTEX
  8
CAPA_1
 62
7
 10
3.076819
 20
6.082023
  0
VERTEX
  8
CAPA_1
 62
7
 10
3.074863
 20
6.073265
 42
-0.314965
  0
VERTEX
  8
CAPA_1
 62
7
 10
3.011499
 20
6.066462
  0
VERTEX
  8
CAPA_1
 62
7
 10
3.011499
 20
6.066462
  0
SEQEND
  0
POLYLINE
  8
CAPA_1
 62
7
 70
1
 66
1
  0
VERTEX
  8
CAPA_1
 62
7
 10
2.899192
 20
6.093783
 42
-0.065167
  0
VERTEX
  8
CAPA_1
 62
7
 10
2.889094
 20
6.101428
 42
-0.116269
  0
VERTEX
  8
CAPA_1
 62
7
 10
2.881244
 20
6.113099
 42
-0.179018
  0
VERTEX
  8
CAPA_1
 62
7
 10
2.883203
 20
6.212387
 42
-0.076747
  0
VERTEX
  8
CAPA_1
 62
7
 10
2.891598
 20
6.220070
 42
0.030107
  0
VERTEX
  8
CAPA_1
 62
7
 10
2.899387
 20
6.225799
 42
-0.171137
  0
VERTEX
  8
CAPA_1
 62
7
 10
2.922704
 20
6.220938
 42
-0.148519
  0
VERTEX
  8
CAPA_1
 62
7
 10
2.935684
 20
6.204707
 42
-0.098353
  0
VERTEX
  8
CAPA_1
 62
7
 10
2.942428
 20
6.159637
 42
-0.090882
  0
VERTEX
  8
CAPA_1
 62
7
 10
2.936279
 20
6.113641
 42
-0.161613
  0
VERTEX
  8
CAPA_1
 62
7
 10
2.923382
 20
6.097474
 42
-0.178182
  0
VERTEX
  8
CAPA_1
 62
7
 10
2.899192
 20
6.093783
  0
VERTEX
  8
CAPA_1
 62
7
 10
2.899192
 20
6.093783
  0
SEQEND
  0
POLYLINE
  8
CAPA_1
 62
7
 70
1
 66
1
  0
VERTEX
  8
CAPA_1
 62
7
 10
2.925258
 20
6.060893
 42
-0.303055
  0
VERTEX
  8
CAPA_1
 62
7
 10
2.865098
 20
6.080383
 42
-0.175236
  0
VERTEX
  8
CAPA_1
 62
7
 10
2.843327
 20
6.143072
 42
-0.059372
  0
VERTEX
  8
CAPA_1
 62
7
 10
2.848772
 20
6.212731
 42
-0.298134
  0
VERTEX
  8
CAPA_1
 62
7
 10
2.892165
 20
6.258207
 42
-0.301057
  0
VERTEX
  8
CAPA_1
 62
7
 10
2.951737
 20
6.238249
 42
-0.170901
  0
VERTEX
  8
CAPA_1
 62
7
 10
2.973292
 20
6.176051
 42
-0.060919
  0
VERTEX
  8
CAPA_1
 62
7
 10
2.968289
 20
6.106826
 42
-0.294186
  0
VERTEX
  8
CAPA_1
 62
7
 10
2.925258
 20
6.060893
  0
VERTEX
  8
CAPA_1
 62
7
 10
2.925258
 20
6.060893
  0
SEQEND
  0
POLYLINE
  8
CAPA_1
 62
7
 70
1
 66
1
  0
VERTEX
  8
CAPA_1
 62
7
 10
2.543753
 20
6.062458
 42
-0.241706
  0
VERTEX
  8
CAPA_1
 62
7
 10
2.514423
 20
6.100829
 42
-0.135099
  0
VERTEX
  8
CAPA_1
 62
7
 10
2.517952
 20
6.150896
 42
-0.146206
  0
VERTEX
  8
CAPA_1
 62
7
 10
2.531852
 20
6.168406
  0
VERTEX
  8
CAPA_1
 62
7
 10
2.551772
 20
6.181940
 42
0.115454
  0
VERTEX
  8
CAPA_1
 62
7
 10
2.567405
 20
6.197441
 42
0.217997
  0
VERTEX
  8
CAPA_1
 62
7
 10
2.568444
 20
6.220851
 42
0.141123
  0
VERTEX
  8
CAPA_1
 62
7
 10
2.555754
 20
6.227144
 42
0.180197
  0
VERTEX
  8
CAPA_1
 62
7
 10
2.541570
 20
6.224664
 42
0.049375
  0
VERTEX
  8
CAPA_1
 62
7
 10
2.534351
 20
6.220626
  0
VERTEX
  8
CAPA_1
 62
7
 10
2.527254
 20
6.215514
 42
-0.265709
  0
VERTEX
  8
CAPA_1
 62
7
 10
2.522783
 20
6.215100
 42
-0.141473
  0
VERTEX
  8
CAPA_1
 62
7
 10
2.521047
 20
6.216532
 42
-0.164799
  0
VERTEX
  8
CAPA_1
 62
7
 10
2.520434
 20
6.218858
 42
-0.021558
  0
VERTEX
  8
CAPA_1
 62
7
 10
2.521046
 20
6.245796
 42
-0.220232
  0
VERTEX
  8
CAPA_1
 62
7
 10
2.554852
 20
6.259527
 42
-0.224849
  0
VERTEX
  8
CAPA_1
 62
7
 10
2.588170
 20
6.244299
 42
-0.282154
  0
VERTEX
  8
CAPA_1
 62
7
 10
2.591826
 20
6.167505
 42
-0.106733
  0
VERTEX
  8
CAPA_1
 62
7
 10
2.580602
 20
6.154773
 42
0.025095
  0
VERTEX
  8
CAPA_1
 62
7
 10
2.552024
 20
6.134578
 42
0.137128
  0
VERTEX
  8
CAPA_1
 62
7
 10
2.543313
 20
6.120396
 42
0.214533
  0
VERTEX
  8
CAPA_1
 62
7
 10
2.546628
 20
6.101649
 42
0.244130
  0
VERTEX
  8
CAPA_1
 62
7
 10
2.562358
 20
6.092329
 42
0.190953
  0
VERTEX
  8
CAPA_1
 62
7
 10
2.595398
 20
6.107418
 42
-0.300070
  0
VERTEX
  8
CAPA_1
 62
7
 10
2.599868
 20
6.107836
 42
-0.313286
  0
VERTEX
  8
CAPA_1
 62
7
 10
2.602312
 20
6.104001
 42
-0.023568
  0
VERTEX
  8
CAPA_1
 62
7
 10
2.601548
 20
6.075624
 42
-0.198612
  0
VERTEX
  8
CAPA_1
 62
7
 10
2.574923
 20
6.060731
 42
-0.098056
  0
VERTEX
  8
CAPA_1
 62
7
 10
2.543753
 20
6.062458
  0
VERTEX
  8
CAPA_1
 62
7
 10
2.543753
 20
6.062458
  0
SEQEND
  0
POLYLINE
  8
CAPA_1
 62
7
 70
1
 66
1
  0
VERTEX
  8
CAPA_1
 62
7
 10
4.524622
 20
6.062937
  0
VERTEX
  8
CAPA_1
 62
7
 10
4.459140
 20
6.062017
 42
-0.116709
  0
VERTEX
  8
CAPA_1
 62
7
 10
4.456647
 20
6.077386
 42
0.030718
  0
VERTEX
  8
CAPA_1
 62
7
 10
4.456719
 20
6.093335
 42
0.091465
  0
VERTEX
  8
CAPA_1
 62
7
 10
4.459231
 20
6.095030
 42
0.040236
  0
VERTEX
  8
CAPA_1
 62
7
 10
4.460013
 20
6.096008
  0
VERTEX
  8
CAPA_1
 62
7
 10
4.460823
 20
6.097246
  0
VERTEX
  8
CAPA_1
 62
7
 10
4.503118
 20
6.097654
  0
VERTEX
  8
CAPA_1
 62
7
 10
4.503421
 20
6.253641
 42
-0.148138
  0
VERTEX
  8
CAPA_1
 62
7
 10
4.514463
 20
6.257096
  0
VERTEX
  8
CAPA_1
 62
7
 10
4.526328
 20
6.257120
 42
0.136136
  0
VERTEX
  8
CAPA_1
 62
7
 10
4.529043
 20
6.255209
  0
VERTEX
  8
CAPA_1
 62
7
 10
4.532816
 20
6.253638
  0
VERTEX
  8
CAPA_1
 62
7
 10
4.532957
 20
6.120674
  0
VERTEX
  8
CAPA_1
 62
7
 10
4.532961
 20
6.087447
 42
-0.044985
  0
VERTEX
  8
CAPA_1
 62
7
 10
4.532581
 20
6.072123
 42
-0.119886
  0
VERTEX
  8
CAPA_1
 62
7
 10
4.530149
 20
6.065898
 42
-0.215240
  0
VERTEX
  8
CAPA_1
 62
7
 10
4.524622
 20
6.062937
  0
VERTEX
  8
CAPA_1
 62
7
 10
4.524622
 20
6.062937
  0
SEQEND
  0
POLYLINE
  8
CAPA_1
 62
7
 70
1
 66
1
  0
VERTEX
  8
CAPA_1
 62
7
 10
4.361362
 20
6.062225
 42
-0.194987
  0
VERTEX
  8
CAPA_1
 62
7
 10
4.361503
 20
6.094972
  0
VERTEX
  8
CAPA_1
 62
7
 10
4.412101
 20
6.095779
  0
VERTEX
  8
CAPA_1
 62
7
 10
4.412100
 20
6.147279
 42
-0.013025
  0
VERTEX
  8
CAPA_1
 62
7
 10
4.368782
 20
6.148225
 42
-0.159356
  0
VERTEX
  8
CAPA_1
 62
7
 10
4.368785
 20
6.178391
 42
-0.034848
  0
VERTEX
  8
CAPA_1
 62
7
 10
4.390214
 20
6.179141
  0
VERTEX
  8
CAPA_1
 62
7
 10
4.412086
 20
6.179334
  0
VERTEX
  8
CAPA_1
 62
7
 10
4.412074
 20
6.223425
  0
VERTEX
  8
CAPA_1
 62
7
 10
4.361344
 20
6.224148
 42
-0.068389
  0
VERTEX
  8
CAPA_1
 62
7
 10
4.359291
 20
6.239542
  0
VERTEX
  8
CAPA_1
 62
7
 10
4.360210
 20
6.255854
 42
-0.053867
  0
VERTEX
  8
CAPA_1
 62
7
 10
4.440521
 20
6.254677
 42
-0.016483
  0
VERTEX
  8
CAPA_1
 62
7
 10
4.440870
 20
6.064598
 42
-0.053364
  0
VERTEX
  8
CAPA_1
 62
7
 10
4.400842
 20
6.061845
  0
VERTEX
  8
CAPA_1
 62
7
 10
4.361362
 20
6.062225
  0
VERTEX
  8
CAPA_1
 62
7
 10
4.361362
 20
6.062225
  0
SEQEND
  0
POLYLINE
  8
CAPA_1
 62
7
 70
1
 66
1
  0
VERTEX
  8
CAPA_1
 62
7
 10
4.173164
 20
6.062279
  0
VERTEX
  8
CAPA_1
 62
7
 10
4.171453
 20
6.064510
 42
0.099458
  0
VERTEX
  8
CAPA_1
 62
7
 10
4.169054
 20
6.066143
  0
VERTEX
  8
CAPA_1
 62
7
 10
4.169208
 20
6.253641
 42
-0.146294
  0
VERTEX
  8
CAPA_1
 62
7
 10
4.180302
 20
6.257097
  0
VERTEX
  8
CAPA_1
 62
7
 10
4.192168
 20
6.257118
 42
0.132070
  0
VERTEX
  8
CAPA_1
 62
7
 10
4.194871
 20
6.255205
  0
VERTEX
  8
CAPA_1
 62
7
 10
4.198688
 20
6.253669
  0
VERTEX
  8
CAPA_1
 62
7
 10
4.198762
 20
6.066136
 42
0.099039
  0
VERTEX
  8
CAPA_1
 62
7
 10
4.196380
 20
6.064511
  0
VERTEX
  8
CAPA_1
 62
7
 10
4.194669
 20
6.062279
  0
VERTEX
  8
CAPA_1
 62
7
 10
4.173164
 20
6.062279
  0
VERTEX
  8
CAPA_1
 62
7
 10
4.173164
 20
6.062279
  0
SEQEND
  0
POLYLINE
  8
CAPA_1
 62
7
 70
1
 66
1
  0
VERTEX
  8
CAPA_1
 62
7
 10
3.883315
 20
6.100365
 42
-0.163502
  0
VERTEX
  8
CAPA_1
 62
7
 10
3.865803
 20
6.126405
 42
-0.065598
  0
VERTEX
  8
CAPA_1
 62
7
 10
3.861686
 20
6.157841
 42
-0.077670
  0
VERTEX
  8
CAPA_1
 62
7
 10
3.865189
 20
6.191185
 42
-0.160961
  0
VERTEX
  8
CAPA_1
 62
7
 10
3.883143
 20
6.218648
 42
-0.183527
  0
VERTEX
  8
CAPA_1
 62
7
 10
3.900592
 20
6.223532
 42
0.001862
  0
VERTEX
  8
CAPA_1
 62
7
 10
3.911069
 20
6.223895
 42
-0.046805
  0
VERTEX
  8
CAPA_1
 62
7
 10
3.913370
 20
6.223607
 42
-0.090585
  0
VERTEX
  8
CAPA_1
 62
7
 10
3.915202
 20
6.222850
 42
-0.138245
  0
VERTEX
  8
CAPA_1
 62
7
 10
3.916394
 20
6.221468
 42
-0.117992
  0
VERTEX
  8
CAPA_1
 62
7
 10
3.916776
 20
6.219301
  0
VERTEX
  8
CAPA_1
 62
7
 10
3.916603
 20
6.178199
  0
VERTEX
  8
CAPA_1
 62
7
 10
3.916467
 20
6.095755
  0
VERTEX
  8
CAPA_1
 62
7
 10
3.898779
 20
6.095551
 42
-0.144331
  0
VERTEX
  8
CAPA_1
 62
7
 10
3.883315
 20
6.100365
  0
VERTEX
  8
CAPA_1
 62
7
 10
3.883315
 20
6.100365
  0
SEQEND
  0
POLYLINE
  8
CAPA_1
 62
7
 70
1
 66
1
  0
VERTEX
  8
CAPA_1
 62
7
 10
3.937981
 20
6.063659
 42
-0.167687
  0
VERTEX
  8
CAPA_1
 62
7
 10
3.872968
 20
6.069364
 42
-0.252086
  0
VERTEX
  8
CAPA_1
 62
7
 10
3.835876
 20
6.115818
 42
-0.065753
  0
VERTEX
  8
CAPA_1
 62
7
 10
3.831681
 20
6.182378
 42
-0.169369
  0
VERTEX
  8
CAPA_1
 62
7
 10
3.856139
 20
6.240423
 42
-0.162878
  0
VERTEX
  8
CAPA_1
 62
7
 10
3.884500
 20
6.254478
  0
VERTEX
  8
CAPA_1
 62
7
 10
3.917247
 20
6.257031
 42
-0.052860
  0
VERTEX
  8
CAPA_1
 62
7
 10
3.935355
 20
6.256853
 42
-0.127753
  0
VERTEX
  8
CAPA_1
 62
7
 10
3.942601
 20
6.253882
 42
-0.213185
  0
VERTEX
  8
CAPA_1
 62
7
 10
3.945925
 20
6.247064
  0
VERTEX
  8
CAPA_1
 62
7
 10
3.946208
 20
6.207914
  0
VERTEX
  8
CAPA_1
 62
7
 10
3.946280
 20
6.129893
  0
VERTEX
  8
CAPA_1
 62
7
 10
3.946222
 20
6.090961
 42
-0.028081
  0
VERTEX
  8
CAPA_1
 62
7
 10
3.946207
 20
6.074169
 42
-0.120865
  0
VERTEX
  8
CAPA_1
 62
7
 10
3.943912
 20
6.067499
 42
-0.188684
  0
VERTEX
  8
CAPA_1
 62
7
 10
3.937981
 20
6.063659
  0
VERTEX
  8
CAPA_1
 62
7
 10
3.937981
 20
6.063659
  0
SEQEND
  0
POLYLINE
  8
CAPA_1
 62
7
 70
1
 66
1
  0
VERTEX
  8
CAPA_1
 62
7
 10
3.730621
 20
6.062021
 42
-0.146046
  0
VERTEX
  8
CAPA_1
 62
7
 10
3.727110
 20
6.075215
  0
VERTEX
  8
CAPA_1
 62
7
 10
3.727067
 20
6.088972
 42
0.173557
  0
VERTEX
  8
CAPA_1
 62
7
 10
3.729081
 20
6.091675
 42
-0.065978
  0
VERTEX
  8
CAPA_1
 62
7
 10
3.730669
 20
6.095233
  0
VERTEX
  8
CAPA_1
 62
7
 10
3.780904
 20
6.095749
  0
VERTEX
  8
CAPA_1
 62
7
 10
3.780892
 20
6.147278
 42
-0.014202
  0
VERTEX
  8
CAPA_1
 62
7
 10
3.737645
 20
6.148265
 42
-0.188293
  0
VERTEX
  8
CAPA_1
 62
7
 10
3.737646
 20
6.178350
 42
-0.036967
  0
VERTEX
  8
CAPA_1
 62
7
 10
3.759025
 20
6.179145
  0
VERTEX
  8
CAPA_1
 62
7
 10
3.780880
 20
6.179340
  0
VERTEX
  8
CAPA_1
 62
7
 10
3.780856
 20
6.223419
  0
VERTEX
  8
CAPA_1
 62
7
 10
3.730243
 20
6.224190
 42
-0.098115
  0
VERTEX
  8
CAPA_1
 62
7
 10
3.727887
 20
6.239459
  0
VERTEX
  8
CAPA_1
 62
7
 10
3.728997
 20
6.255850
 42
-0.053937
  0
VERTEX
  8
CAPA_1
 62
7
 10
3.809319
 20
6.254676
 42
-0.016937
  0
VERTEX
  8
CAPA_1
 62
7
 10
3.809592
 20
6.064832
 42
-0.061308
  0
VERTEX
  8
CAPA_1
 62
7
 10
3.769976
 20
6.061844
  0
VERTEX
  8
CAPA_1
 62
7
 10
3.730621
 20
6.062021
  0
VERTEX
  8
CAPA_1
 62
7
 10
3.730621
 20
6.062021
  0
SEQEND
  0
POLYLINE
  8
CAPA_1
 62
7
 70
1
 66
1
  0
VERTEX
  8
CAPA_1
 62
7
 10
3.627552
 20
6.222497
 42
0.019786
  0
VERTEX
  8
CAPA_1
 62
7
 10
3.627356
 20
6.161424
 42
-0.300514
  0
VERTEX
  8
CAPA_1
 62
7
 10
3.600548
 20
6.167588
 42
-0.182144
  0
VERTEX
  8
CAPA_1
 62
7
 10
3.591198
 20
6.193344
 42
-0.198024
  0
VERTEX
  8
CAPA_1
 62
7
 10
3.599977
 20
6.218408
 42
-0.155058
  0
VERTEX
  8
CAPA_1
 62
7
 10
3.611373
 20
6.224342
 42
-0.130633
  0
VERTEX
  8
CAPA_1
 62
7
 10
3.627552
 20
6.222497
  0
VERTEX
  8
CAPA_1
 62
7
 10
3.627552
 20
6.222497
  0
SEQEND
  0
POLYLINE
  8
CAPA_1
 62
7
 70
1
 66
1
  0
VERTEX
  8
CAPA_1
 62
7
 10
3.626999
 20
6.064422
  0
VERTEX
  8
CAPA_1
 62
7
 10
3.626743
 20
6.129040
 42
-0.097981
  0
VERTEX
  8
CAPA_1
 62
7
 10
3.597511
 20
6.131592
 42
-0.156637
  0
VERTEX
  8
CAPA_1
 62
7
 10
3.574380
 20
6.147236
 42
-0.180912
  0
VERTEX
  8
CAPA_1
 62
7
 10
3.560959
 20
6.206071
 42
-0.111961
  0
VERTEX
  8
CAPA_1
 62
7
 10
3.569068
 20
6.233690
 42
-0.187482
  0
VERTEX
  8
CAPA_1
 62
7
 10
3.589715
 20
6.251779
 42
-0.173518
  0
VERTEX
  8
CAPA_1
 62
7
 10
3.655590
 20
6.252138
  0
VERTEX
  8
CAPA_1
 62
7
 10
3.656869
 20
6.157798
  0
VERTEX
  8
CAPA_1
 62
7
 10
3.656097
 20
6.063768
 42
-0.039480
  0
VERTEX
  8
CAPA_1
 62
7
 10
3.640591
 20
6.061879
 42
-0.106133
  0
VERTEX
  8
CAPA_1
 62
7
 10
3.626999
 20
6.064422
  0
VERTEX
  8
CAPA_1
 62
7
 10
3.626999
 20
6.064422
  0
SEQEND
  0
POLYLINE
  8
CAPA_1
 62
7
 70
1
 66
1
  0
VERTEX
  8
CAPA_1
 62
7
 10
3.474809
 20
6.198779
 42
-0.274579
  0
VERTEX
  8
CAPA_1
 62
7
 10
3.485655
 20
6.220730
 42
-0.196843
  0
VERTEX
  8
CAPA_1
 62
7
 10
3.511904
 20
6.224817
  0
VERTEX
  8
CAPA_1
 62
7
 10
3.512101
 20
6.172398
 42
-0.227747
  0
VERTEX
  8
CAPA_1
 62
7
 10
3.485736
 20
6.176150
 42
-0.230739
  0
VERTEX
  8
CAPA_1
 62
7
 10
3.474809
 20
6.198779
  0
VERTEX
  8
CAPA_1
 62
7
 10
3.474809
 20
6.198779
  0
SEQEND
  0
POLYLINE
  8
CAPA_1
 62
7
 70
1
 66
1
  0
VERTEX
  8
CAPA_1
 62
7
 10
3.511815
 20
6.064472
  0
VERTEX
  8
CAPA_1
 62
7
 10
3.512029
 20
6.137365
 42
0.166483
  0
VERTEX
  8
CAPA_1
 62
7
 10
3.510920
 20
6.141249
 42
0.163087
  0
VERTEX
  8
CAPA_1
 62
7
 10
3.509502
 20
6.142220
 42
0.165897
  0
VERTEX
  8
CAPA_1
 62
7
 10
3.507530
 20
6.142020
 42
-0.038420
  0
VERTEX
  8
CAPA_1
 62
7
 10
3.503501
 20
6.140750
 42
0.093753
  0
VERTEX
  8
CAPA_1
 62
7
 10
3.492755
 20
6.136944
 42
0.079584
  0
VERTEX
  8
CAPA_1
 62
7
 10
3.478349
 20
6.099992
 42
-0.050105
  0
VERTEX
  8
CAPA_1
 62
7
 10
3.466033
 20
6.062024
 42
0.038276
  0
VERTEX
  8
CAPA_1
 62
7
 10
3.457944
 20
6.062268
  0
VERTEX
  8
CAPA_1
 62
7
 10
3.451024
 20
6.061919
 42
-0.131489
  0
VERTEX
  8
CAPA_1
 62
7
 10
3.436451
 20
6.065001
  0
VERTEX
  8
CAPA_1
 62
7
 10
3.448743
 20
6.110315
 42
-0.091780
  0
VERTEX
  8
CAPA_1
 62
7
 10
3.468729
 20
6.152570
 42
-0.221398
  0
VERTEX
  8
CAPA_1
 62
7
 10
3.446237
 20
6.187250
 42
-0.119539
  0
VERTEX
  8
CAPA_1
 62
7
 10
3.449012
 20
6.230177
 42
-0.269609
  0
VERTEX
  8
CAPA_1
 62
7
 10
3.488024
 20
6.256368
 42
-0.048037
  0
VERTEX
  8
CAPA_1
 62
7
 10
3.513977
 20
6.257076
  0
VERTEX
  8
CAPA_1
 62
7
 10
3.539872
 20
6.254824
 42
-0.013827
  0
VERTEX
  8
CAPA_1
 62
7
 10
3.541133
 20
6.063780
 42
-0.037563
  0
VERTEX
  8
CAPA_1
 62
7
 10
3.525482
 20
6.061871
 42
-0.106889
  0
VERTEX
  8
CAPA_1
 62
7
 10
3.511815
 20
6.064472
  0
VERTEX
  8
CAPA_1
 62
7
 10
3.511815
 20
6.064472
  0
SEQEND
  0
POLYLINE
  8
CAPA_1
 62
7
 70
1
 66
1
  0
VERTEX
  8
CAPA_1
 62
7
 10
3.244543
 20
6.064466
  0
VERTEX
  8
CAPA_1
 62
7
 10
3.244405
 20
6.139893
  0
VERTEX
  8
CAPA_1
 62
7
 10
3.200526
 20
6.140262
 42
-0.139761
  0
VERTEX
  8
CAPA_1
 62
7
 10
3.197992
 20
6.153050
 42
0.036999
  0
VERTEX
  8
CAPA_1
 62
7
 10
3.197916
 20
6.166770
 42
0.154137
  0
VERTEX
  8
CAPA_1
 62
7
 10
3.199988
 20
6.169673
 42
-0.071701
  0
VERTEX
  8
CAPA_1
 62
7
 10
3.201593
 20
6.173174
  0
VERTEX
  8
CAPA_1
 62
7
 10
3.244379
 20
6.173723
  0
VERTEX
  8
CAPA_1
 62
7
 10
3.244390
 20
6.221604
  0
VERTEX
  8
CAPA_1
 62
7
 10
3.200272
 20
6.221924
 42
0.150450
  0
VERTEX
  8
CAPA_1
 62
7
 10
3.196390
 20
6.225865
  0
VERTEX
  8
CAPA_1
 62
7
 10
3.196399
 20
6.252968
  0
VERTEX
  8
CAPA_1
 62
7
 10
3.198675
 20
6.254634
 42
0.092811
  0
VERTEX
  8
CAPA_1
 62
7
 10
3.199497
 20
6.255641
 42
0.074089
  0
VERTEX
  8
CAPA_1
 62
7
 10
3.200085
 20
6.257356
 42
-0.033337
  0
VERTEX
  8
CAPA_1
 62
7
 10
3.272846
 20
6.254706
  0
VERTEX
  8
CAPA_1
 62
7
 10
3.274464
 20
6.159331
  0
VERTEX
  8
CAPA_1
 62
7
 10
3.273746
 20
6.063856
 42
-0.042588
  0
VERTEX
  8
CAPA_1
 62
7
 10
3.258148
 20
6.061863
 42
-0.106103
  0
VERTEX
  8
CAPA_1
 62
7
 10
3.244543
 20
6.064466
  0
VERTEX
  8
CAPA_1
 62
7
 10
3.244543
 20
6.064466
  0
SEQEND
  0
POLYLINE
  8
CAPA_1
 62
7
 70
1
 66
1
  0
VERTEX
  8
CAPA_1
 62
7
 10
3.096193
 20
6.061901
 42
0.155523
  0
VERTEX
  8
CAPA_1
 62
7
 10
3.094702
 20
6.064547
  0
VERTEX
  8
CAPA_1
 62
7
 10
3.092441
 20
6.066225
  0
VERTEX
  8
CAPA_1
 62
7
 10
3.092435
 20
6.091463
 42
0.049646
  0
VERTEX
  8
CAPA_1
 62
7
 10
3.094689
 20
6.093172
 42
0.078609
  0
VERTEX
  8
CAPA_1
 62
7
 10
3.096305
 20
6.095416
  0
VERTEX
  8
CAPA_1
 62
7
 10
3.144141
 20
6.095724
  0
VERTEX
  8
CAPA_1
 62
7
 10
3.144136
 20
6.147335
  0
VERTEX
  8
CAPA_1
 62
7
 10
3.102183
 20
6.147728
 42
-0.090761
  0
VERTEX
  8
CAPA_1
 62
7
 10
3.099738
 20
6.159624
  0
VERTEX
  8
CAPA_1
 62
7
 10
3.099751
 20
6.172439
 42
0.129075
  0
VERTEX
  8
CAPA_1
 62
7
 10
3.101566
 20
6.175232
 42
-0.056712
  0
VERTEX
  8
CAPA_1
 62
7
 10
3.103197
 20
6.178728
  0
VERTEX
  8
CAPA_1
 62
7
 10
3.144125
 20
6.179298
  0
VERTEX
  8
CAPA_1
 62
7
 10
3.144131
 20
6.223435
  0
VERTEX
  8
CAPA_1
 62
7
 10
3.095643
 20
6.224058
 42
-0.139445
  0
VERTEX
  8
CAPA_1
 62
7
 10
3.091982
 20
6.240077
 42
-0.078843
  0
VERTEX
  8
CAPA_1
 62
7
 10
3.095316
 20
6.256456
  0
VERTEX
  8
CAPA_1
 62
7
 10
3.135890
 20
6.256809
  0
VERTEX
  8
CAPA_1
 62
7
 10
3.156059
 20
6.257449
 42
-0.195461
  0
VERTEX
  8
CAPA_1
 62
7
 10
3.174102
 20
6.251239
  0
VERTEX
  8
CAPA_1
 62
7
 10
3.173059
 20
6.063611
 42
-0.036148
  0
VERTEX
  8
CAPA_1
 62
7
 10
3.134411
 20
6.061991
  0
VERTEX
  8
CAPA_1
 62
7
 10
3.096193
 20
6.061901
  0
VERTEX
  8
CAPA_1
 62
7
 10
3.096193
 20
6.061901
  0
SEQEND
  0
POLYLINE
  8
CAPA_1
 62
7
 70
1
 66
1
  0
VERTEX
  8
CAPA_1
 62
7
 10
2.787124
 20
6.171469
 42
0.052174
  0
VERTEX
  8
CAPA_1
 62
7
 10
2.783659
 20
6.171789
 42
-0.069244
  0
VERTEX
  8
CAPA_1
 62
7
 10
2.774494
 20
6.172185
 42
-0.187407
  0
VERTEX
  8
CAPA_1
 62
7
 10
2.761492
 20
6.180826
 42
-0.131547
  0
VERTEX
  8
CAPA_1
 62
7
 10
2.756076
 20
6.195791
 42
-0.120473
  0
VERTEX
  8
CAPA_1
 62
7
 10
2.758245
 20
6.211722
 42
-0.171421
  0
VERTEX
  8
CAPA_1
 62
7
 10
2.767998
 20
6.223260
 42
0.052324
  0
VERTEX
  8
CAPA_1
 62
7
 10
2.774064
 20
6.223504
 42
-0.058843
  0
VERTEX
  8
CAPA_1
 62
7
 10
2.791401
 20
6.225288
  0
VERTEX
  8
CAPA_1
 62
7
 10
2.791733
 20
6.176195
 42
-0.181421
  0
VERTEX
  8
CAPA_1
 62
7
 10
2.790695
 20
6.172464
 42
-0.147640
  0
VERTEX
  8
CAPA_1
 62
7
 10
2.789241
 20
6.171504
 42
-0.125566
  0
VERTEX
  8
CAPA_1
 62
7
 10
2.787124
 20
6.171469
  0
VERTEX
  8
CAPA_1
 62
7
 10
2.787124
 20
6.171469
  0
SEQEND
  0
POLYLINE
  8
CAPA_1
 62
7
 70
1
 66
1
  0
VERTEX
  8
CAPA_1
 62
7
 10
2.798286
 20
6.062032
 42
0.127983
  0
VERTEX
  8
CAPA_1
 62
7
 10
2.795419
 20
6.063982
  0
VERTEX
  8
CAPA_1
 62
7
 10
2.791763
 20
6.065575
  0
VERTEX
  8
CAPA_1
 62
7
 10
2.791449
 20
6.141724
 42
0.169697
  0
VERTEX
  8
CAPA_1
 62
7
 10
2.784063
 20
6.141056
  0
VERTEX
  8
CAPA_1
 62
7
 10
2.780711
 20
6.140017
 42
-0.087845
  0
VERTEX
  8
CAPA_1
 62
7
 10
2.776397
 20
6.139923
 42
0.096123
  0
VERTEX
  8
CAPA_1
 62
7
 10
2.760448
 20
6.105296
  0
VERTEX
  8
CAPA_1
 62
7
 10
2.749877
 20
6.068536
 42
0.017621
  0
VERTEX
  8
CAPA_1
 62
7
 10
2.747562
 20
6.062285
 42
-0.063674
  0
VERTEX
  8
CAPA_1
 62
7
 10
2.718108
 20
6.063559
  0
VERTEX
  8
CAPA_1
 62
7
 10
2.729077
 20
6.110030
 42
-0.097568
  0
VERTEX
  8
CAPA_1
 62
7
 10
2.750023
 20
6.152526
 42
-0.220839
  0
VERTEX
  8
CAPA_1
 62
7
 10
2.726438
 20
6.190002
 42
-0.151862
  0
VERTEX
  8
CAPA_1
 62
7
 10
2.732888
 20
6.235039
 42
-0.270139
  0
VERTEX
  8
CAPA_1
 62
7
 10
2.769843
 20
6.255897
  0
VERTEX
  8
CAPA_1
 62
7
 10
2.796498
 20
6.257643
 42
-0.169816
  0
VERTEX
  8
CAPA_1
 62
7
 10
2.821233
 20
6.251432
  0
VERTEX
  8
CAPA_1
 62
7
 10
2.821239
 20
6.066074
 42
0.120556
  0
VERTEX
  8
CAPA_1
 62
7
 10
2.818872
 20
6.064510
  0
VERTEX
  8
CAPA_1
 62
7
 10
2.817166
 20
6.062349
  0
VERTEX
  8
CAPA_1
 62
7
 10
2.798286
 20
6.062032
  0
VERTEX
  8
CAPA_1
 62
7
 10
2.798286
 20
6.062032
  0
SEQEND
  0
POLYLINE
  8
CAPA_1
 62
7
 70
1
 66
1
  0
VERTEX
  8
CAPA_1
 62
7
 10
2.619982
 20
6.062224
 42
-0.195004
  0
VERTEX
  8
CAPA_1
 62
7
 10
2.620123
 20
6.094972
  0
VERTEX
  8
CAPA_1
 62
7
 10
2.670716
 20
6.095779
  0
VERTEX
  8
CAPA_1
 62
7
 10
2.670760
 20
6.147278
 42
-0.012904
  0
VERTEX
  8
CAPA_1
 62
7
 10
2.627068
 20
6.148233
 42
-0.060468
  0
VERTEX
  8
CAPA_1
 62
7
 10
2.627070
 20
6.178383
 42
-0.034060
  0
VERTEX
  8
CAPA_1
 62
7
 10
2.648871
 20
6.179142
  0
VERTEX
  8
CAPA_1
 62
7
 10
2.670745
 20
6.179336
  0
VERTEX
  8
CAPA_1
 62
7
 10
2.670719
 20
6.223418
  0
VERTEX
  8
CAPA_1
 62
7
 10
2.619743
 20
6.224200
 42
-0.056264
  0
VERTEX
  8
CAPA_1
 62
7
 10
2.618849
 20
6.239474
  0
VERTEX
  8
CAPA_1
 62
7
 10
2.618545
 20
6.255820
 42
-0.050950
  0
VERTEX
  8
CAPA_1
 62
7
 10
2.699225
 20
6.254891
 42
-0.015977
  0
VERTEX
  8
CAPA_1
 62
7
 10
2.699489
 20
6.064601
 42
-0.053443
  0
VERTEX
  8
CAPA_1
 62
7
 10
2.659463
 20
6.061844
  0
VERTEX
  8
CAPA_1
 62
7
 10
2.619982
 20
6.062224
  0
VERTEX
  8
CAPA_1
 62
7
 10
2.619982
 20
6.062224
  0
SEQEND
  0
POLYLINE
  8
CAPA_1
 62
7
 70
1
 66
1
  0
VERTEX
  8
CAPA_1
 62
7
 10
3.842515
 20
6.422799
 42
0.003623
  0
VERTEX
  8
CAPA_1
 62
7
 10
3.449854
 20
6.423812
 42
-0.176741
  0
VERTEX
  8
CAPA_1
 62
7
 10
3.446182
 20
6.425031
 42
-0.231330
  0
VERTEX
  8
CAPA_1
 62
7
 10
3.444673
 20
6.428444
  0
VERTEX
  8
CAPA_1
 62
7
 10
3.445196
 20
6.589044
  0
VERTEX
  8
CAPA_1
 62
7
 10
3.675716
 20
6.589068
  0
VERTEX
  8
CAPA_1
 62
7
 10
3.784932
 20
6.588676
 42
0.099371
  0
VERTEX
  8
CAPA_1
 62
7
 10
3.885273
 20
6.609978
 42
0.256133
  0
VERTEX
  8
CAPA_1
 62
7
 10
3.988906
 20
6.761739
 42
0.284232
  0
VERTEX
  8
CAPA_1
 62
7
 10
3.912656
 20
6.935263
 42
0.127525
  0
VERTEX
  8
CAPA_1
 62
7
 10
3.811805
 20
6.969923
 42
0.028572
  0
VERTEX
  8
CAPA_1
 62
7
 10
3.756721
 20
6.972223
  0
VERTEX
  8
CAPA_1
 62
7
 10
3.699980
 20
6.970593
 42
-0.003364
  0
VERTEX
  8
CAPA_1
 62
7
 10
3.445044
 20
6.969505
  0
VERTEX
  8
CAPA_1
 62
7
 10
3.445010
 20
7.135002
  0
VERTEX
  8
CAPA_1
 62
7
 10
3.716890
 20
7.134496
  0
VERTEX
  8
CAPA_1
 62
7
 10
3.850242
 20
7.137873
 42
-0.106274
  0
VERTEX
  8
CAPA_1
 62
7
 10
3.959109
 20
7.110281
 42
-0.226407
  0
VERTEX
  8
CAPA_1
 62
7
 10
4.140570
 20
6.867610
 42
-0.197491
  0
VERTEX
  8
CAPA_1
 62
7
 10
4.092567
 20
6.566872
 42
-0.255513
  0
VERTEX
  8
CAPA_1
 62
7
 10
3.842515
 20
6.422799
  0
VERTEX
  8
CAPA_1
 62
7
 10
3.842515
 20
6.422799
  0
SEQEND
  0
POLYLINE
  8
CAPA_1
 62
7
 70
1
 66
1
  0
VERTEX
  8
CAPA_1
 62
7
 10
3.446113
 20
7.171012
 42
-0.038654
  0
VERTEX
  8
CAPA_1
 62
7
 10
3.289945
 20
7.174472
 42
-0.105938
  0
VERTEX
  8
CAPA_1
 62
7
 10
3.151117
 20
7.218339
 42
-0.167216
  0
VERTEX
  8
CAPA_1
 62
7
 10
2.976648
 20
7.401272
 42
-0.199765
  0
VERTEX
  8
CAPA_1
 62
7
 10
2.973599
 20
7.699517
 42
-0.158565
  0
VERTEX
  8
CAPA_1
 62
7
 10
3.144687
 20
7.887352
 42
-0.092168
  0
VERTEX
  8
CAPA_1
 62
7
 10
3.288956
 20
7.933008
 42
-0.045843
  0
VERTEX
  8
CAPA_1
 62
7
 10
3.450460
 20
7.938203
  0
VERTEX
  8
CAPA_1
 62
7
 10
3.450358
 20
7.174906
 42
-0.081953
  0
VERTEX
  8
CAPA_1
 62
7
 10
3.450107
 20
7.173094
 42
-0.135786
  0
VERTEX
  8
CAPA_1
 62
7
 10
3.449336
 20
7.171916
 42
-0.113536
  0
VERTEX
  8
CAPA_1
 62
7
 10
3.448014
 20
7.171259
 42
-0.056039
  0
VERTEX
  8
CAPA_1
 62
7
 10
3.446113
 20
7.171012
  0
VERTEX
  8
CAPA_1
 62
7
 10
3.446113
 20
7.171012
  0
SEQEND
  0
POLYLINE
  8
CAPA_1
 62
7
 70
1
 66
1
  0
VERTEX
  8
CAPA_1
 62
7
 10
3.460296
 20
6.411701
  0
VERTEX
  8
CAPA_1
 62
7
 10
4.143182
 20
6.411701
 42
0.200156
  0
VERTEX
  8
CAPA_1
 62
7
 10
4.146620
 20
6.412919
 42
0.204302
  0
VERTEX
  8
CAPA_1
 62
7
 10
4.147854
 20
6.416314
  0
VERTEX
  8
CAPA_1
 62
7
 10
4.147744
 20
7.935929
  0
VERTEX
  8
CAPA_1
 62
7
 10
3.455734
 20
7.935929
  0
VERTEX
  8
CAPA_1
 62
7
 10
3.455624
 20
6.416314
 42
0.204302
  0
VERTEX
  8
CAPA_1
 62
7
 10
3.456858
 20
6.412919
 42
0.200156
  0
VERTEX
  8
CAPA_1
 62
7
 10
3.460296
 20
6.411701
  0
VERTEX
  8
CAPA_1
 62
7
 10
3.460296
 20
6.411701
  0
SEQEND
  0
POLYLINE
  8
CAPA_1
 62
7
 70
1
 66
1
  0
VERTEX
  8
CAPA_1
 62
7
 10
3.449073
 20
6.400602
  0
VERTEX
  8
CAPA_1
 62
7
 10
4.154405
 20
6.400602
 42
0.200053
  0
VERTEX
  8
CAPA_1
 62
7
 10
4.157843
 20
6.401819
 42
0.204402
  0
VERTEX
  8
CAPA_1
 62
7
 10
4.159079
 20
6.405214
  0
VERTEX
  8
CAPA_1
 62
7
 10
4.158967
 20
7.947030
  0
VERTEX
  8
CAPA_1
 62
7
 10
3.444511
 20
7.947030
  0
VERTEX
  8
CAPA_1
 62
7
 10
3.444399
 20
6.405214
 42
0.204402
  0
VERTEX
  8
CAPA_1
 62
7
 10
3.445634
 20
6.401819
 42
0.200053
  0
VERTEX
  8
CAPA_1
 62
7
 10
3.449073
 20
6.400602
  0
VERTEX
  8
CAPA_1
 62
7
 10
3.449073
 20
6.400602
  0
SEQEND
  0
ENDSEC
  0
EOF
